<?xml version="1.0" encoding="utf-8" standalone="no"?>
<!DOCTYPE svg PUBLIC "-//W3C//DTD SVG 1.1//EN"
  "http://www.w3.org/Graphics/SVG/1.1/DTD/svg11.dtd">
<!-- Created with matplotlib (https://matplotlib.org/) -->
<svg height="504pt" version="1.1" viewBox="0 0 720 504" width="720pt" xmlns="http://www.w3.org/2000/svg" xmlns:xlink="http://www.w3.org/1999/xlink">
 <defs>
  <style type="text/css">
*{stroke-linecap:butt;stroke-linejoin:round;}
  </style>
 </defs>
 <g id="figure_1">
  <g id="patch_1">
   <path d="M 0 504 
L 720 504 
L 720 0 
L 0 0 
z
" style="fill:#ffffff;"/>
  </g>
  <g id="axes_1">
   <g id="patch_2">
    <path d="M 90 441 
L 648 441 
L 648 60.48 
L 90 60.48 
z
" style="fill:#ffffff;"/>
   </g>
   <g id="PolyCollection_1">
    <defs>
     <path d="M 146.79155 -90.016527 
L 144.80845 -90.016527 
L 144.621204 -93.245867 
L 144.407259 -96.475207 
L 144.164534 -99.704547 
L 143.891086 -102.933887 
L 143.585162 -106.163227 
L 143.24525 -109.392567 
L 142.87013 -112.621908 
L 142.458914 -115.851248 
L 142.011082 -119.080588 
L 141.526509 -122.309928 
L 141.005478 -125.539268 
L 140.448687 -128.768608 
L 139.857236 -131.997948 
L 139.232615 -135.227288 
L 138.57667 -138.456628 
L 137.891574 -141.685969 
L 137.17978 -144.915309 
L 136.443984 -148.144649 
L 135.687082 -151.373989 
L 134.91213 -154.603329 
L 134.122316 -157.832669 
L 133.320934 -161.062009 
L 132.511368 -164.291349 
L 131.697088 -167.52069 
L 130.881652 -170.75003 
L 130.06871 -173.97937 
L 129.262014 -177.20871 
L 128.465425 -180.43805 
L 127.682916 -183.66739 
L 126.91856 -186.89673 
L 126.176502 -190.12607 
L 125.460922 -193.35541 
L 124.775961 -196.584751 
L 124.125636 -199.814091 
L 123.513728 -203.043431 
L 122.943646 -206.272771 
L 122.418284 -209.502111 
L 121.939852 -212.731451 
L 121.509721 -215.960791 
L 121.128259 -219.190131 
L 120.794688 -222.419471 
L 120.506971 -225.648812 
L 120.261723 -228.878152 
L 120.05418 -232.107492 
L 119.878213 -235.336832 
L 119.726403 -238.566172 
L 119.590184 -241.795512 
L 119.460051 -245.024852 
L 119.325827 -248.254192 
L 119.176995 -251.483533 
L 119.00308 -254.712873 
L 118.794068 -257.942213 
L 118.540855 -261.171553 
L 118.235694 -264.400893 
L 117.872643 -267.630233 
L 117.44797 -270.859573 
L 116.96051 -274.088913 
L 116.411947 -277.318253 
L 115.807005 -280.547594 
L 115.15353 -283.776934 
L 114.462452 -287.006274 
L 113.747622 -290.235614 
L 113.025522 -293.464954 
L 112.314852 -296.694294 
L 111.636003 -299.923634 
L 111.010438 -303.152974 
L 110.460001 -306.382314 
L 110.00618 -309.611655 
L 109.669358 -312.840995 
L 109.468078 -316.070335 
L 109.418368 -319.299675 
L 109.533131 -322.529015 
L 109.821663 -325.758355 
L 110.289287 -328.987695 
L 110.937142 -332.217035 
L 111.762123 -335.446376 
L 112.756986 -338.675716 
L 113.910594 -341.905056 
L 115.208305 -345.134396 
L 116.632484 -348.363736 
L 118.163092 -351.593076 
L 119.778357 -354.822416 
L 121.455458 -358.051756 
L 123.171235 -361.281096 
L 124.902847 -364.510437 
L 126.628401 -367.739777 
L 128.327487 -370.969117 
L 129.981638 -374.198457 
L 131.574675 -377.427797 
L 133.092948 -380.657137 
L 134.525476 -383.886477 
L 135.863974 -387.115817 
L 137.102793 -390.345157 
L 138.238777 -393.574498 
L 139.271057 -396.803838 
L 140.200794 -400.033178 
L 141.030887 -403.262518 
L 141.765665 -406.491858 
L 142.410581 -409.721198 
L 149.189419 -409.721198 
L 149.189419 -409.721198 
L 149.834335 -406.491858 
L 150.569113 -403.262518 
L 151.399206 -400.033178 
L 152.328943 -396.803838 
L 153.361223 -393.574498 
L 154.497207 -390.345157 
L 155.736026 -387.115817 
L 157.074524 -383.886477 
L 158.507052 -380.657137 
L 160.025325 -377.427797 
L 161.618362 -374.198457 
L 163.272513 -370.969117 
L 164.971599 -367.739777 
L 166.697153 -364.510437 
L 168.428765 -361.281096 
L 170.144542 -358.051756 
L 171.821643 -354.822416 
L 173.436908 -351.593076 
L 174.967516 -348.363736 
L 176.391695 -345.134396 
L 177.689406 -341.905056 
L 178.843014 -338.675716 
L 179.837877 -335.446376 
L 180.662858 -332.217035 
L 181.310713 -328.987695 
L 181.778337 -325.758355 
L 182.066869 -322.529015 
L 182.181632 -319.299675 
L 182.131922 -316.070335 
L 181.930642 -312.840995 
L 181.59382 -309.611655 
L 181.139999 -306.382314 
L 180.589562 -303.152974 
L 179.963997 -299.923634 
L 179.285148 -296.694294 
L 178.574478 -293.464954 
L 177.852378 -290.235614 
L 177.137548 -287.006274 
L 176.44647 -283.776934 
L 175.792995 -280.547594 
L 175.188053 -277.318253 
L 174.63949 -274.088913 
L 174.15203 -270.859573 
L 173.727357 -267.630233 
L 173.364306 -264.400893 
L 173.059145 -261.171553 
L 172.805932 -257.942213 
L 172.59692 -254.712873 
L 172.423005 -251.483533 
L 172.274173 -248.254192 
L 172.139949 -245.024852 
L 172.009816 -241.795512 
L 171.873597 -238.566172 
L 171.721787 -235.336832 
L 171.54582 -232.107492 
L 171.338277 -228.878152 
L 171.093029 -225.648812 
L 170.805312 -222.419471 
L 170.471741 -219.190131 
L 170.090279 -215.960791 
L 169.660148 -212.731451 
L 169.181716 -209.502111 
L 168.656354 -206.272771 
L 168.086272 -203.043431 
L 167.474364 -199.814091 
L 166.824039 -196.584751 
L 166.139078 -193.35541 
L 165.423498 -190.12607 
L 164.68144 -186.89673 
L 163.917084 -183.66739 
L 163.134575 -180.43805 
L 162.337986 -177.20871 
L 161.53129 -173.97937 
L 160.718348 -170.75003 
L 159.902912 -167.52069 
L 159.088632 -164.291349 
L 158.279066 -161.062009 
L 157.477684 -157.832669 
L 156.68787 -154.603329 
L 155.912918 -151.373989 
L 155.156016 -148.144649 
L 154.42022 -144.915309 
L 153.708426 -141.685969 
L 153.02333 -138.456628 
L 152.367385 -135.227288 
L 151.742764 -131.997948 
L 151.151313 -128.768608 
L 150.594522 -125.539268 
L 150.073491 -122.309928 
L 149.588918 -119.080588 
L 149.141086 -115.851248 
L 148.72987 -112.621908 
L 148.35475 -109.392567 
L 148.014838 -106.163227 
L 147.708914 -102.933887 
L 147.435466 -99.704547 
L 147.192741 -96.475207 
L 146.978796 -93.245867 
L 146.79155 -90.016527 
z
" id="m6289925244" style="stroke:#3d3d3d;stroke-width:1.5;"/>
    </defs>
    <g clip-path="url(#p3a5eb40e6f)">
     <use style="fill:#3274a1;stroke:#3d3d3d;stroke-width:1.5;" x="0" xlink:href="#m6289925244" y="504"/>
    </g>
   </g>
   <g id="PolyCollection_2">
    <defs>
     <path d="M 258.410615 -98.353725 
L 256.389385 -98.353725 
L 256.192859 -101.464876 
L 255.969634 -104.576027 
L 255.718613 -107.687178 
L 255.439183 -110.798329 
L 255.131307 -113.90948 
L 254.795593 -117.020631 
L 254.433352 -120.131782 
L 254.046618 -123.242932 
L 253.638141 -126.354083 
L 253.211341 -129.465234 
L 252.770212 -132.576385 
L 252.319194 -135.687536 
L 251.863 -138.798687 
L 251.40641 -141.909838 
L 250.954036 -145.020989 
L 250.510074 -148.13214 
L 250.078054 -151.243291 
L 249.660601 -154.354442 
L 249.259223 -157.465593 
L 248.874146 -160.576744 
L 248.504203 -163.687895 
L 248.146793 -166.799046 
L 247.79791 -169.910197 
L 247.452261 -173.021348 
L 247.103451 -176.132499 
L 246.744241 -179.243649 
L 246.36687 -182.3548 
L 245.963409 -185.465951 
L 245.526147 -188.577102 
L 245.047972 -191.688253 
L 244.522734 -194.799404 
L 243.94556 -197.910555 
L 243.313111 -201.021706 
L 242.623752 -204.132857 
L 241.877641 -207.244008 
L 241.07671 -210.355159 
L 240.224561 -213.46631 
L 239.326257 -216.577461 
L 238.388051 -219.688612 
L 237.417044 -222.799763 
L 236.420802 -225.910914 
L 235.40696 -229.022065 
L 234.382835 -232.133216 
L 233.355064 -235.244366 
L 232.329301 -238.355517 
L 231.309991 -241.466668 
L 230.30022 -244.577819 
L 229.301679 -247.68897 
L 228.314722 -250.800121 
L 227.338527 -253.911272 
L 226.371359 -257.022423 
L 225.410908 -260.133574 
L 224.454706 -263.244725 
L 223.500579 -266.355876 
L 222.547123 -269.467027 
L 221.594185 -272.578178 
L 220.643293 -275.689329 
L 219.698043 -278.80048 
L 218.764387 -281.911631 
L 217.850815 -285.022782 
L 216.968405 -288.133933 
L 216.130739 -291.245083 
L 215.353652 -294.356234 
L 214.654854 -297.467385 
L 214.053402 -300.578536 
L 213.56905 -303.689687 
L 213.221522 -306.800838 
L 213.029701 -309.911989 
L 213.010822 -313.02314 
L 213.179661 -316.134291 
L 213.547806 -319.245442 
L 214.123014 -322.356593 
L 214.908722 -325.467744 
L 215.903712 -328.578895 
L 217.101973 -331.690046 
L 218.492754 -334.801197 
L 220.060825 -337.912348 
L 221.786904 -341.023499 
L 223.648264 -344.13465 
L 225.619459 -347.2458 
L 227.67315 -350.356951 
L 229.780977 -353.468102 
L 231.914445 -356.579253 
L 234.045774 -359.690404 
L 236.148682 -362.801555 
L 238.199059 -365.912706 
L 240.175527 -369.023857 
L 242.059845 -372.135008 
L 243.837174 -375.246159 
L 245.496193 -378.35731 
L 247.029074 -381.468461 
L 248.431336 -384.579612 
L 249.701595 -387.690763 
L 250.841233 -390.801914 
L 251.85401 -393.913065 
L 252.745646 -397.024216 
L 253.523388 -400.135367 
L 254.195592 -403.246517 
L 254.771327 -406.357668 
L 260.028673 -406.357668 
L 260.028673 -406.357668 
L 260.604408 -403.246517 
L 261.276612 -400.135367 
L 262.054354 -397.024216 
L 262.94599 -393.913065 
L 263.958767 -390.801914 
L 265.098405 -387.690763 
L 266.368664 -384.579612 
L 267.770926 -381.468461 
L 269.303807 -378.35731 
L 270.962826 -375.246159 
L 272.740155 -372.135008 
L 274.624473 -369.023857 
L 276.600941 -365.912706 
L 278.651318 -362.801555 
L 280.754226 -359.690404 
L 282.885555 -356.579253 
L 285.019023 -353.468102 
L 287.12685 -350.356951 
L 289.180541 -347.2458 
L 291.151736 -344.13465 
L 293.013096 -341.023499 
L 294.739175 -337.912348 
L 296.307246 -334.801197 
L 297.698027 -331.690046 
L 298.896288 -328.578895 
L 299.891278 -325.467744 
L 300.676986 -322.356593 
L 301.252194 -319.245442 
L 301.620339 -316.134291 
L 301.789178 -313.02314 
L 301.770299 -309.911989 
L 301.578478 -306.800838 
L 301.23095 -303.689687 
L 300.746598 -300.578536 
L 300.145146 -297.467385 
L 299.446348 -294.356234 
L 298.669261 -291.245083 
L 297.831595 -288.133933 
L 296.949185 -285.022782 
L 296.035613 -281.911631 
L 295.101957 -278.80048 
L 294.156707 -275.689329 
L 293.205815 -272.578178 
L 292.252877 -269.467027 
L 291.299421 -266.355876 
L 290.345294 -263.244725 
L 289.389092 -260.133574 
L 288.428641 -257.022423 
L 287.461473 -253.911272 
L 286.485278 -250.800121 
L 285.498321 -247.68897 
L 284.49978 -244.577819 
L 283.490009 -241.466668 
L 282.470699 -238.355517 
L 281.444936 -235.244366 
L 280.417165 -232.133216 
L 279.39304 -229.022065 
L 278.379198 -225.910914 
L 277.382956 -222.799763 
L 276.411949 -219.688612 
L 275.473743 -216.577461 
L 274.575439 -213.46631 
L 273.72329 -210.355159 
L 272.922359 -207.244008 
L 272.176248 -204.132857 
L 271.486889 -201.021706 
L 270.85444 -197.910555 
L 270.277266 -194.799404 
L 269.752028 -191.688253 
L 269.273853 -188.577102 
L 268.836591 -185.465951 
L 268.43313 -182.3548 
L 268.055759 -179.243649 
L 267.696549 -176.132499 
L 267.347739 -173.021348 
L 267.00209 -169.910197 
L 266.653207 -166.799046 
L 266.295797 -163.687895 
L 265.925854 -160.576744 
L 265.540777 -157.465593 
L 265.139399 -154.354442 
L 264.721946 -151.243291 
L 264.289926 -148.13214 
L 263.845964 -145.020989 
L 263.39359 -141.909838 
L 262.937 -138.798687 
L 262.480806 -135.687536 
L 262.029788 -132.576385 
L 261.588659 -129.465234 
L 261.161859 -126.354083 
L 260.753382 -123.242932 
L 260.366648 -120.131782 
L 260.004407 -117.020631 
L 259.668693 -113.90948 
L 259.360817 -110.798329 
L 259.081387 -107.687178 
L 258.830366 -104.576027 
L 258.607141 -101.464876 
L 258.410615 -98.353725 
z
" id="mae225c955a" style="stroke:#3d3d3d;stroke-width:1.5;"/>
    </defs>
    <g clip-path="url(#p3a5eb40e6f)">
     <use style="fill:#e1812c;stroke:#3d3d3d;stroke-width:1.5;" x="0" xlink:href="#mae225c955a" y="504"/>
    </g>
   </g>
   <g id="PolyCollection_3">
    <defs>
     <path d="M 370.352059 -147.618535 
L 367.647941 -147.618535 
L 367.383249 -150.241396 
L 367.078507 -152.864256 
L 366.73011 -155.487116 
L 366.334587 -158.109976 
L 365.888702 -160.732836 
L 365.389557 -163.355696 
L 364.834698 -165.978557 
L 364.22223 -168.601417 
L 363.550921 -171.224277 
L 362.820304 -173.847137 
L 362.030769 -176.469997 
L 361.183636 -179.092858 
L 360.281217 -181.715718 
L 359.326851 -184.338578 
L 358.324913 -186.961438 
L 357.280793 -189.584298 
L 356.200857 -192.207158 
L 355.092361 -194.830019 
L 353.963346 -197.452879 
L 352.822497 -200.075739 
L 351.678985 -202.698599 
L 350.542274 -205.321459 
L 349.421917 -207.94432 
L 348.327342 -210.56718 
L 347.267622 -213.19004 
L 346.251261 -215.8129 
L 345.28597 -218.43576 
L 344.378477 -221.05862 
L 343.534344 -223.681481 
L 342.757824 -226.304341 
L 342.051741 -228.927201 
L 341.417417 -231.550061 
L 340.854629 -234.172921 
L 340.361612 -236.795782 
L 339.935099 -239.418642 
L 339.570394 -242.041502 
L 339.26148 -244.664362 
L 339.00116 -247.287222 
L 338.781208 -249.910082 
L 338.592556 -252.532943 
L 338.425477 -255.155803 
L 338.26979 -257.778663 
L 338.115069 -260.401523 
L 337.950856 -263.024383 
L 337.766881 -265.647244 
L 337.553284 -268.270104 
L 337.300849 -270.892964 
L 337.001236 -273.515824 
L 336.647225 -276.138684 
L 336.232965 -278.761544 
L 335.754217 -281.384405 
L 335.2086 -284.007265 
L 334.595819 -286.630125 
L 333.917875 -289.252985 
L 333.179235 -291.875845 
L 332.386952 -294.498706 
L 331.550731 -297.121566 
L 330.682905 -299.744426 
L 329.798333 -302.367286 
L 328.914198 -304.990146 
L 328.049702 -307.613006 
L 327.225664 -310.235867 
L 326.464017 -312.858727 
L 325.787236 -315.481587 
L 325.217686 -318.104447 
L 324.776939 -320.727307 
L 324.485075 -323.350168 
L 324.36 -325.973028 
L 324.416803 -328.595888 
L 324.667198 -331.218748 
L 325.119061 -333.841608 
L 325.776098 -336.464468 
L 326.637651 -339.087329 
L 327.698659 -341.710189 
L 328.949774 -344.333049 
L 330.377626 -346.955909 
L 331.965226 -349.578769 
L 333.692486 -352.20163 
L 335.536843 -354.82449 
L 337.473936 -357.44735 
L 339.47833 -360.07021 
L 341.524244 -362.69307 
L 343.586252 -365.31593 
L 345.639937 -367.938791 
L 347.662472 -370.561651 
L 349.633103 -373.184511 
L 351.533541 -375.807371 
L 353.348226 -378.430231 
L 355.064498 -381.053092 
L 356.672644 -383.675952 
L 358.165853 -386.298812 
L 359.540088 -388.921672 
L 360.793874 -391.544532 
L 361.928038 -394.167392 
L 362.945409 -396.790253 
L 363.850487 -399.413113 
L 364.649115 -402.035973 
L 365.348146 -404.658833 
L 365.955135 -407.281693 
L 372.044865 -407.281693 
L 372.044865 -407.281693 
L 372.651854 -404.658833 
L 373.350885 -402.035973 
L 374.149513 -399.413113 
L 375.054591 -396.790253 
L 376.071962 -394.167392 
L 377.206126 -391.544532 
L 378.459912 -388.921672 
L 379.834147 -386.298812 
L 381.327356 -383.675952 
L 382.935502 -381.053092 
L 384.651774 -378.430231 
L 386.466459 -375.807371 
L 388.366897 -373.184511 
L 390.337528 -370.561651 
L 392.360063 -367.938791 
L 394.413748 -365.31593 
L 396.475756 -362.69307 
L 398.52167 -360.07021 
L 400.526064 -357.44735 
L 402.463157 -354.82449 
L 404.307514 -352.20163 
L 406.034774 -349.578769 
L 407.622374 -346.955909 
L 409.050226 -344.333049 
L 410.301341 -341.710189 
L 411.362349 -339.087329 
L 412.223902 -336.464468 
L 412.880939 -333.841608 
L 413.332802 -331.218748 
L 413.583197 -328.595888 
L 413.64 -325.973028 
L 413.514925 -323.350168 
L 413.223061 -320.727307 
L 412.782314 -318.104447 
L 412.212764 -315.481587 
L 411.535983 -312.858727 
L 410.774336 -310.235867 
L 409.950298 -307.613006 
L 409.085802 -304.990146 
L 408.201667 -302.367286 
L 407.317095 -299.744426 
L 406.449269 -297.121566 
L 405.613048 -294.498706 
L 404.820765 -291.875845 
L 404.082125 -289.252985 
L 403.404181 -286.630125 
L 402.7914 -284.007265 
L 402.245783 -281.384405 
L 401.767035 -278.761544 
L 401.352775 -276.138684 
L 400.998764 -273.515824 
L 400.699151 -270.892964 
L 400.446716 -268.270104 
L 400.233119 -265.647244 
L 400.049144 -263.024383 
L 399.884931 -260.401523 
L 399.73021 -257.778663 
L 399.574523 -255.155803 
L 399.407444 -252.532943 
L 399.218792 -249.910082 
L 398.99884 -247.287222 
L 398.73852 -244.664362 
L 398.429606 -242.041502 
L 398.064901 -239.418642 
L 397.638388 -236.795782 
L 397.145371 -234.172921 
L 396.582583 -231.550061 
L 395.948259 -228.927201 
L 395.242176 -226.304341 
L 394.465656 -223.681481 
L 393.621523 -221.05862 
L 392.71403 -218.43576 
L 391.748739 -215.8129 
L 390.732378 -213.19004 
L 389.672658 -210.56718 
L 388.578083 -207.94432 
L 387.457726 -205.321459 
L 386.321015 -202.698599 
L 385.177503 -200.075739 
L 384.036654 -197.452879 
L 382.907639 -194.830019 
L 381.799143 -192.207158 
L 380.719207 -189.584298 
L 379.675087 -186.961438 
L 378.673149 -184.338578 
L 377.718783 -181.715718 
L 376.816364 -179.092858 
L 375.969231 -176.469997 
L 375.179696 -173.847137 
L 374.449079 -171.224277 
L 373.77777 -168.601417 
L 373.165302 -165.978557 
L 372.610443 -163.355696 
L 372.111298 -160.732836 
L 371.665413 -158.109976 
L 371.26989 -155.487116 
L 370.921493 -152.864256 
L 370.616751 -150.241396 
L 370.352059 -147.618535 
z
" id="m839bba3de0" style="stroke:#3d3d3d;stroke-width:1.5;"/>
    </defs>
    <g clip-path="url(#p3a5eb40e6f)">
     <use style="fill:#3a923a;stroke:#3d3d3d;stroke-width:1.5;" x="0" xlink:href="#m839bba3de0" y="504"/>
    </g>
   </g>
   <g id="PolyCollection_4">
    <defs>
     <path d="M 483.007371 -80.296364 
L 478.192629 -80.296364 
L 477.778633 -83.790579 
L 477.314343 -87.284793 
L 476.79776 -90.779008 
L 476.227589 -94.273223 
L 475.603361 -97.767438 
L 474.925558 -101.261653 
L 474.195707 -104.755868 
L 473.416458 -108.250083 
L 472.591623 -111.744298 
L 471.72618 -115.238512 
L 470.82624 -118.732727 
L 469.898963 -122.226942 
L 468.95243 -125.721157 
L 467.995471 -129.215372 
L 467.037456 -132.709587 
L 466.088044 -136.203802 
L 465.156915 -139.698017 
L 464.253477 -143.192231 
L 463.386576 -146.686446 
L 462.564214 -150.180661 
L 461.793283 -153.674876 
L 461.079342 -157.169091 
L 460.426436 -160.663306 
L 459.836969 -164.157521 
L 459.311644 -167.651736 
L 458.849466 -171.14595 
L 458.447813 -174.640165 
L 458.102576 -178.13438 
L 457.808349 -181.628595 
L 457.558673 -185.12281 
L 457.34632 -188.617025 
L 457.163591 -192.11124 
L 457.002634 -195.605455 
L 456.855748 -199.099669 
L 456.71567 -202.593884 
L 456.575828 -206.088099 
L 456.430551 -209.582314 
L 456.275224 -213.076529 
L 456.106395 -216.570744 
L 455.921817 -220.064959 
L 455.720434 -223.559174 
L 455.502328 -227.053388 
L 455.268605 -230.547603 
L 455.021267 -234.041818 
L 454.763042 -237.536033 
L 454.497222 -241.030248 
L 454.227482 -244.524463 
L 453.957726 -248.018678 
L 453.691943 -251.512893 
L 453.434085 -255.007107 
L 453.18799 -258.501322 
L 452.957322 -261.995537 
L 452.745549 -265.489752 
L 452.555957 -268.983967 
L 452.391671 -272.478182 
L 452.255714 -275.972397 
L 452.151056 -279.466612 
L 452.08068 -282.960826 
L 452.04763 -286.455041 
L 452.05505 -289.949256 
L 452.106201 -293.443471 
L 452.204449 -296.937686 
L 452.353228 -300.431901 
L 452.555973 -303.926116 
L 452.81602 -307.420331 
L 453.136491 -310.914545 
L 453.52015 -314.40876 
L 453.969257 -317.902975 
L 454.485417 -321.39719 
L 455.06943 -324.891405 
L 455.721167 -328.38562 
L 456.439457 -331.879835 
L 457.22202 -335.37405 
L 458.065425 -338.868264 
L 458.965096 -342.362479 
L 459.91536 -345.856694 
L 460.909532 -349.350909 
L 461.940047 -352.845124 
L 462.998618 -356.339339 
L 464.07643 -359.833554 
L 465.164344 -363.327769 
L 466.253122 -366.821983 
L 467.333641 -370.316198 
L 468.39711 -373.810413 
L 469.435269 -377.304628 
L 470.440558 -380.798843 
L 471.406262 -384.293058 
L 472.326631 -387.787273 
L 473.196943 -391.281488 
L 474.013558 -394.775702 
L 474.773914 -398.269917 
L 475.476503 -401.764132 
L 476.120814 -405.258347 
L 476.707257 -408.752562 
L 477.237059 -412.246777 
L 477.712154 -415.740992 
L 478.135062 -419.235207 
L 478.508769 -422.729421 
L 478.836602 -426.223636 
L 482.363398 -426.223636 
L 482.363398 -426.223636 
L 482.691231 -422.729421 
L 483.064938 -419.235207 
L 483.487846 -415.740992 
L 483.962941 -412.246777 
L 484.492743 -408.752562 
L 485.079186 -405.258347 
L 485.723497 -401.764132 
L 486.426086 -398.269917 
L 487.186442 -394.775702 
L 488.003057 -391.281488 
L 488.873369 -387.787273 
L 489.793738 -384.293058 
L 490.759442 -380.798843 
L 491.764731 -377.304628 
L 492.80289 -373.810413 
L 493.866359 -370.316198 
L 494.946878 -366.821983 
L 496.035656 -363.327769 
L 497.12357 -359.833554 
L 498.201382 -356.339339 
L 499.259953 -352.845124 
L 500.290468 -349.350909 
L 501.28464 -345.856694 
L 502.234904 -342.362479 
L 503.134575 -338.868264 
L 503.97798 -335.37405 
L 504.760543 -331.879835 
L 505.478833 -328.38562 
L 506.13057 -324.891405 
L 506.714583 -321.39719 
L 507.230743 -317.902975 
L 507.67985 -314.40876 
L 508.063509 -310.914545 
L 508.38398 -307.420331 
L 508.644027 -303.926116 
L 508.846772 -300.431901 
L 508.995551 -296.937686 
L 509.093799 -293.443471 
L 509.14495 -289.949256 
L 509.15237 -286.455041 
L 509.11932 -282.960826 
L 509.048944 -279.466612 
L 508.944286 -275.972397 
L 508.808329 -272.478182 
L 508.644043 -268.983967 
L 508.454451 -265.489752 
L 508.242678 -261.995537 
L 508.01201 -258.501322 
L 507.765915 -255.007107 
L 507.508057 -251.512893 
L 507.242274 -248.018678 
L 506.972518 -244.524463 
L 506.702778 -241.030248 
L 506.436958 -237.536033 
L 506.178733 -234.041818 
L 505.931395 -230.547603 
L 505.697672 -227.053388 
L 505.479566 -223.559174 
L 505.278183 -220.064959 
L 505.093605 -216.570744 
L 504.924776 -213.076529 
L 504.769449 -209.582314 
L 504.624172 -206.088099 
L 504.48433 -202.593884 
L 504.344252 -199.099669 
L 504.197366 -195.605455 
L 504.036409 -192.11124 
L 503.85368 -188.617025 
L 503.641327 -185.12281 
L 503.391651 -181.628595 
L 503.097424 -178.13438 
L 502.752187 -174.640165 
L 502.350534 -171.14595 
L 501.888356 -167.651736 
L 501.363031 -164.157521 
L 500.773564 -160.663306 
L 500.120658 -157.169091 
L 499.406717 -153.674876 
L 498.635786 -150.180661 
L 497.813424 -146.686446 
L 496.946523 -143.192231 
L 496.043085 -139.698017 
L 495.111956 -136.203802 
L 494.162544 -132.709587 
L 493.204529 -129.215372 
L 492.24757 -125.721157 
L 491.301037 -122.226942 
L 490.37376 -118.732727 
L 489.47382 -115.238512 
L 488.608377 -111.744298 
L 487.783542 -108.250083 
L 487.004293 -104.755868 
L 486.274442 -101.261653 
L 485.596639 -97.767438 
L 484.972411 -94.273223 
L 484.40224 -90.779008 
L 483.885657 -87.284793 
L 483.421367 -83.790579 
L 483.007371 -80.296364 
z
" id="m4372b556b3" style="stroke:#3d3d3d;stroke-width:1.5;"/>
    </defs>
    <g clip-path="url(#p3a5eb40e6f)">
     <use style="fill:#c03d3e;stroke:#3d3d3d;stroke-width:1.5;" x="0" xlink:href="#m4372b556b3" y="504"/>
    </g>
   </g>
   <g id="PolyCollection_5">
    <defs>
     <path d="M 593.153376 -94.095631 
L 591.246624 -94.095631 
L 591.061229 -97.393282 
L 590.850531 -100.690933 
L 590.613417 -103.988584 
L 590.349206 -107.286235 
L 590.057726 -110.583887 
L 589.739377 -113.881538 
L 589.395177 -117.179189 
L 589.026783 -120.47684 
L 588.63647 -123.774491 
L 588.227091 -127.072143 
L 587.801987 -130.369794 
L 587.364864 -133.667445 
L 586.919633 -136.965096 
L 586.470225 -140.262747 
L 586.02038 -143.560399 
L 585.573426 -146.85805 
L 585.132064 -150.155701 
L 584.698164 -153.453352 
L 584.272592 -156.751003 
L 583.855085 -160.048655 
L 583.444175 -163.346306 
L 583.037187 -166.643957 
L 582.630299 -169.941608 
L 582.218678 -173.239259 
L 581.796688 -176.536911 
L 581.358154 -179.834562 
L 580.896671 -183.132213 
L 580.405949 -186.429864 
L 579.880169 -189.727515 
L 579.314318 -193.025167 
L 578.70451 -196.322818 
L 578.048233 -199.620469 
L 577.344545 -202.91812 
L 576.594172 -206.215771 
L 575.799524 -209.513423 
L 574.964612 -212.811074 
L 574.094871 -216.108725 
L 573.196908 -219.406376 
L 572.278176 -222.704027 
L 571.346604 -226.001679 
L 570.410197 -229.29933 
L 569.476633 -232.596981 
L 568.552886 -235.894632 
L 567.644889 -239.192283 
L 566.757262 -242.489935 
L 565.893126 -245.787586 
L 565.054009 -249.085237 
L 564.239854 -252.382888 
L 563.449135 -255.680539 
L 562.679072 -258.978191 
L 561.925937 -262.275842 
L 561.185443 -265.573493 
L 560.453189 -268.871144 
L 559.725144 -272.168795 
L 558.998143 -275.466447 
L 558.270372 -278.764098 
L 557.541802 -282.061749 
L 556.814569 -285.3594 
L 556.093239 -288.657051 
L 555.384978 -291.954703 
L 554.699571 -295.252354 
L 554.049311 -298.550005 
L 553.448733 -301.847656 
L 552.914208 -305.145307 
L 552.463407 -308.442959 
L 552.114658 -311.74061 
L 551.886218 -315.038261 
L 551.7955 -318.335912 
L 551.858292 -321.633563 
L 552.088006 -324.931215 
L 552.494999 -328.228866 
L 553.086001 -331.526517 
L 553.863687 -334.824168 
L 554.826409 -338.121819 
L 555.96811 -341.419471 
L 557.278426 -344.717122 
L 558.742959 -348.014773 
L 560.343727 -351.312424 
L 562.059745 -354.610075 
L 563.867722 -357.907727 
L 565.742831 -361.205378 
L 567.659507 -364.503029 
L 569.592254 -367.80068 
L 571.516397 -371.098331 
L 573.408772 -374.395983 
L 575.248308 -377.693634 
L 577.016492 -380.991285 
L 578.697706 -384.288936 
L 580.279428 -387.586587 
L 581.752298 -390.884239 
L 583.110068 -394.18189 
L 584.349443 -397.479541 
L 585.469837 -400.777192 
L 586.473061 -404.074844 
L 587.362964 -407.372495 
L 588.145059 -410.670146 
L 588.826133 -413.967797 
L 589.413878 -417.265448 
L 589.916546 -420.5631 
L 594.483454 -420.5631 
L 594.483454 -420.5631 
L 594.986122 -417.265448 
L 595.573867 -413.967797 
L 596.254941 -410.670146 
L 597.037036 -407.372495 
L 597.926939 -404.074844 
L 598.930163 -400.777192 
L 600.050557 -397.479541 
L 601.289932 -394.18189 
L 602.647702 -390.884239 
L 604.120572 -387.586587 
L 605.702294 -384.288936 
L 607.383508 -380.991285 
L 609.151692 -377.693634 
L 610.991228 -374.395983 
L 612.883603 -371.098331 
L 614.807746 -367.80068 
L 616.740493 -364.503029 
L 618.657169 -361.205378 
L 620.532278 -357.907727 
L 622.340255 -354.610075 
L 624.056273 -351.312424 
L 625.657041 -348.014773 
L 627.121574 -344.717122 
L 628.43189 -341.419471 
L 629.573591 -338.121819 
L 630.536313 -334.824168 
L 631.313999 -331.526517 
L 631.905001 -328.228866 
L 632.311994 -324.931215 
L 632.541708 -321.633563 
L 632.6045 -318.335912 
L 632.513782 -315.038261 
L 632.285342 -311.74061 
L 631.936593 -308.442959 
L 631.485792 -305.145307 
L 630.951267 -301.847656 
L 630.350689 -298.550005 
L 629.700429 -295.252354 
L 629.015022 -291.954703 
L 628.306761 -288.657051 
L 627.585431 -285.3594 
L 626.858198 -282.061749 
L 626.129628 -278.764098 
L 625.401857 -275.466447 
L 624.674856 -272.168795 
L 623.946811 -268.871144 
L 623.214557 -265.573493 
L 622.474063 -262.275842 
L 621.720928 -258.978191 
L 620.950865 -255.680539 
L 620.160146 -252.382888 
L 619.345991 -249.085237 
L 618.506874 -245.787586 
L 617.642738 -242.489935 
L 616.755111 -239.192283 
L 615.847114 -235.894632 
L 614.923367 -232.596981 
L 613.989803 -229.29933 
L 613.053396 -226.001679 
L 612.121824 -222.704027 
L 611.203092 -219.406376 
L 610.305129 -216.108725 
L 609.435388 -212.811074 
L 608.600476 -209.513423 
L 607.805828 -206.215771 
L 607.055455 -202.91812 
L 606.351767 -199.620469 
L 605.69549 -196.322818 
L 605.085682 -193.025167 
L 604.519831 -189.727515 
L 603.994051 -186.429864 
L 603.503329 -183.132213 
L 603.041846 -179.834562 
L 602.603312 -176.536911 
L 602.181322 -173.239259 
L 601.769701 -169.941608 
L 601.362813 -166.643957 
L 600.955825 -163.346306 
L 600.544915 -160.048655 
L 600.127408 -156.751003 
L 599.701836 -153.453352 
L 599.267936 -150.155701 
L 598.826574 -146.85805 
L 598.37962 -143.560399 
L 597.929775 -140.262747 
L 597.480367 -136.965096 
L 597.035136 -133.667445 
L 596.598013 -130.369794 
L 596.172909 -127.072143 
L 595.76353 -123.774491 
L 595.373217 -120.47684 
L 595.004823 -117.179189 
L 594.660623 -113.881538 
L 594.342274 -110.583887 
L 594.050794 -107.286235 
L 593.786583 -103.988584 
L 593.549469 -100.690933 
L 593.338771 -97.393282 
L 593.153376 -94.095631 
z
" id="me0304fb56d" style="stroke:#3d3d3d;stroke-width:1.5;"/>
    </defs>
    <g clip-path="url(#p3a5eb40e6f)">
     <use style="fill:#9372b2;stroke:#3d3d3d;stroke-width:1.5;" x="0" xlink:href="#me0304fb56d" y="504"/>
    </g>
   </g>
   <g id="matplotlib.axis_1">
    <g id="xtick_1">
     <g id="line2d_1">
      <defs>
       <path d="M 0 0 
L 0 3.5 
" id="m939e12ccec" style="stroke:#000000;stroke-width:0.8;"/>
      </defs>
      <g>
       <use style="stroke:#000000;stroke-width:0.8;" x="145.8" xlink:href="#m939e12ccec" y="441"/>
      </g>
     </g>
     <g id="text_1">
      <!-- 5 -->
      <defs>
       <path d="M 10.796875 72.90625 
L 49.515625 72.90625 
L 49.515625 64.59375 
L 19.828125 64.59375 
L 19.828125 46.734375 
Q 21.96875 47.46875 24.109375 47.828125 
Q 26.265625 48.1875 28.421875 48.1875 
Q 40.625 48.1875 47.75 41.5 
Q 54.890625 34.8125 54.890625 23.390625 
Q 54.890625 11.625 47.5625 5.09375 
Q 40.234375 -1.421875 26.90625 -1.421875 
Q 22.3125 -1.421875 17.546875 -0.640625 
Q 12.796875 0.140625 7.71875 1.703125 
L 7.71875 11.625 
Q 12.109375 9.234375 16.796875 8.0625 
Q 21.484375 6.890625 26.703125 6.890625 
Q 35.15625 6.890625 40.078125 11.328125 
Q 45.015625 15.765625 45.015625 23.390625 
Q 45.015625 31 40.078125 35.4375 
Q 35.15625 39.890625 26.703125 39.890625 
Q 22.75 39.890625 18.8125 39.015625 
Q 14.890625 38.140625 10.796875 36.28125 
z
" id="DejaVuSans-53"/>
      </defs>
      <g transform="translate(141.34625 458.637812)scale(0.14 -0.14)">
       <use xlink:href="#DejaVuSans-53"/>
      </g>
     </g>
    </g>
    <g id="xtick_2">
     <g id="line2d_2">
      <g>
       <use style="stroke:#000000;stroke-width:0.8;" x="257.4" xlink:href="#m939e12ccec" y="441"/>
      </g>
     </g>
     <g id="text_2">
      <!-- 7 -->
      <defs>
       <path d="M 8.203125 72.90625 
L 55.078125 72.90625 
L 55.078125 68.703125 
L 28.609375 0 
L 18.3125 0 
L 43.21875 64.59375 
L 8.203125 64.59375 
z
" id="DejaVuSans-55"/>
      </defs>
      <g transform="translate(252.94625 458.637812)scale(0.14 -0.14)">
       <use xlink:href="#DejaVuSans-55"/>
      </g>
     </g>
    </g>
    <g id="xtick_3">
     <g id="line2d_3">
      <g>
       <use style="stroke:#000000;stroke-width:0.8;" x="369" xlink:href="#m939e12ccec" y="441"/>
      </g>
     </g>
     <g id="text_3">
      <!-- 10 -->
      <defs>
       <path d="M 12.40625 8.296875 
L 28.515625 8.296875 
L 28.515625 63.921875 
L 10.984375 60.40625 
L 10.984375 69.390625 
L 28.421875 72.90625 
L 38.28125 72.90625 
L 38.28125 8.296875 
L 54.390625 8.296875 
L 54.390625 0 
L 12.40625 0 
z
" id="DejaVuSans-49"/>
       <path d="M 31.78125 66.40625 
Q 24.171875 66.40625 20.328125 58.90625 
Q 16.5 51.421875 16.5 36.375 
Q 16.5 21.390625 20.328125 13.890625 
Q 24.171875 6.390625 31.78125 6.390625 
Q 39.453125 6.390625 43.28125 13.890625 
Q 47.125 21.390625 47.125 36.375 
Q 47.125 51.421875 43.28125 58.90625 
Q 39.453125 66.40625 31.78125 66.40625 
z
M 31.78125 74.21875 
Q 44.046875 74.21875 50.515625 64.515625 
Q 56.984375 54.828125 56.984375 36.375 
Q 56.984375 17.96875 50.515625 8.265625 
Q 44.046875 -1.421875 31.78125 -1.421875 
Q 19.53125 -1.421875 13.0625 8.265625 
Q 6.59375 17.96875 6.59375 36.375 
Q 6.59375 54.828125 13.0625 64.515625 
Q 19.53125 74.21875 31.78125 74.21875 
z
" id="DejaVuSans-48"/>
      </defs>
      <g transform="translate(360.0925 458.637812)scale(0.14 -0.14)">
       <use xlink:href="#DejaVuSans-49"/>
       <use x="63.623047" xlink:href="#DejaVuSans-48"/>
      </g>
     </g>
    </g>
    <g id="xtick_4">
     <g id="line2d_4">
      <g>
       <use style="stroke:#000000;stroke-width:0.8;" x="480.6" xlink:href="#m939e12ccec" y="441"/>
      </g>
     </g>
     <g id="text_4">
      <!-- 17 -->
      <g transform="translate(471.6925 458.637812)scale(0.14 -0.14)">
       <use xlink:href="#DejaVuSans-49"/>
       <use x="63.623047" xlink:href="#DejaVuSans-55"/>
      </g>
     </g>
    </g>
    <g id="xtick_5">
     <g id="line2d_5">
      <g>
       <use style="stroke:#000000;stroke-width:0.8;" x="592.2" xlink:href="#m939e12ccec" y="441"/>
      </g>
     </g>
     <g id="text_5">
      <!-- 100 -->
      <g transform="translate(578.83875 458.637812)scale(0.14 -0.14)">
       <use xlink:href="#DejaVuSans-49"/>
       <use x="63.623047" xlink:href="#DejaVuSans-48"/>
       <use x="127.246094" xlink:href="#DejaVuSans-48"/>
      </g>
     </g>
    </g>
    <g id="text_6">
     <!-- Number of warmup-steps -->
     <defs>
      <path d="M 9.8125 72.90625 
L 23.09375 72.90625 
L 55.421875 11.921875 
L 55.421875 72.90625 
L 64.984375 72.90625 
L 64.984375 0 
L 51.703125 0 
L 19.390625 60.984375 
L 19.390625 0 
L 9.8125 0 
z
" id="DejaVuSans-78"/>
      <path d="M 8.5 21.578125 
L 8.5 54.6875 
L 17.484375 54.6875 
L 17.484375 21.921875 
Q 17.484375 14.15625 20.5 10.265625 
Q 23.53125 6.390625 29.59375 6.390625 
Q 36.859375 6.390625 41.078125 11.03125 
Q 45.3125 15.671875 45.3125 23.6875 
L 45.3125 54.6875 
L 54.296875 54.6875 
L 54.296875 0 
L 45.3125 0 
L 45.3125 8.40625 
Q 42.046875 3.421875 37.71875 1 
Q 33.40625 -1.421875 27.6875 -1.421875 
Q 18.265625 -1.421875 13.375 4.4375 
Q 8.5 10.296875 8.5 21.578125 
z
M 31.109375 56 
z
" id="DejaVuSans-117"/>
      <path d="M 52 44.1875 
Q 55.375 50.25 60.0625 53.125 
Q 64.75 56 71.09375 56 
Q 79.640625 56 84.28125 50.015625 
Q 88.921875 44.046875 88.921875 33.015625 
L 88.921875 0 
L 79.890625 0 
L 79.890625 32.71875 
Q 79.890625 40.578125 77.09375 44.375 
Q 74.3125 48.1875 68.609375 48.1875 
Q 61.625 48.1875 57.5625 43.546875 
Q 53.515625 38.921875 53.515625 30.90625 
L 53.515625 0 
L 44.484375 0 
L 44.484375 32.71875 
Q 44.484375 40.625 41.703125 44.40625 
Q 38.921875 48.1875 33.109375 48.1875 
Q 26.21875 48.1875 22.15625 43.53125 
Q 18.109375 38.875 18.109375 30.90625 
L 18.109375 0 
L 9.078125 0 
L 9.078125 54.6875 
L 18.109375 54.6875 
L 18.109375 46.1875 
Q 21.1875 51.21875 25.484375 53.609375 
Q 29.78125 56 35.6875 56 
Q 41.65625 56 45.828125 52.96875 
Q 50 49.953125 52 44.1875 
z
" id="DejaVuSans-109"/>
      <path d="M 48.6875 27.296875 
Q 48.6875 37.203125 44.609375 42.84375 
Q 40.53125 48.484375 33.40625 48.484375 
Q 26.265625 48.484375 22.1875 42.84375 
Q 18.109375 37.203125 18.109375 27.296875 
Q 18.109375 17.390625 22.1875 11.75 
Q 26.265625 6.109375 33.40625 6.109375 
Q 40.53125 6.109375 44.609375 11.75 
Q 48.6875 17.390625 48.6875 27.296875 
z
M 18.109375 46.390625 
Q 20.953125 51.265625 25.265625 53.625 
Q 29.59375 56 35.59375 56 
Q 45.5625 56 51.78125 48.09375 
Q 58.015625 40.1875 58.015625 27.296875 
Q 58.015625 14.40625 51.78125 6.484375 
Q 45.5625 -1.421875 35.59375 -1.421875 
Q 29.59375 -1.421875 25.265625 0.953125 
Q 20.953125 3.328125 18.109375 8.203125 
L 18.109375 0 
L 9.078125 0 
L 9.078125 75.984375 
L 18.109375 75.984375 
z
" id="DejaVuSans-98"/>
      <path d="M 56.203125 29.59375 
L 56.203125 25.203125 
L 14.890625 25.203125 
Q 15.484375 15.921875 20.484375 11.0625 
Q 25.484375 6.203125 34.421875 6.203125 
Q 39.59375 6.203125 44.453125 7.46875 
Q 49.3125 8.734375 54.109375 11.28125 
L 54.109375 2.78125 
Q 49.265625 0.734375 44.1875 -0.34375 
Q 39.109375 -1.421875 33.890625 -1.421875 
Q 20.796875 -1.421875 13.15625 6.1875 
Q 5.515625 13.8125 5.515625 26.8125 
Q 5.515625 40.234375 12.765625 48.109375 
Q 20.015625 56 32.328125 56 
Q 43.359375 56 49.78125 48.890625 
Q 56.203125 41.796875 56.203125 29.59375 
z
M 47.21875 32.234375 
Q 47.125 39.59375 43.09375 43.984375 
Q 39.0625 48.390625 32.421875 48.390625 
Q 24.90625 48.390625 20.390625 44.140625 
Q 15.875 39.890625 15.1875 32.171875 
z
" id="DejaVuSans-101"/>
      <path d="M 41.109375 46.296875 
Q 39.59375 47.171875 37.8125 47.578125 
Q 36.03125 48 33.890625 48 
Q 26.265625 48 22.1875 43.046875 
Q 18.109375 38.09375 18.109375 28.8125 
L 18.109375 0 
L 9.078125 0 
L 9.078125 54.6875 
L 18.109375 54.6875 
L 18.109375 46.1875 
Q 20.953125 51.171875 25.484375 53.578125 
Q 30.03125 56 36.53125 56 
Q 37.453125 56 38.578125 55.875 
Q 39.703125 55.765625 41.0625 55.515625 
z
" id="DejaVuSans-114"/>
      <path id="DejaVuSans-32"/>
      <path d="M 30.609375 48.390625 
Q 23.390625 48.390625 19.1875 42.75 
Q 14.984375 37.109375 14.984375 27.296875 
Q 14.984375 17.484375 19.15625 11.84375 
Q 23.34375 6.203125 30.609375 6.203125 
Q 37.796875 6.203125 41.984375 11.859375 
Q 46.1875 17.53125 46.1875 27.296875 
Q 46.1875 37.015625 41.984375 42.703125 
Q 37.796875 48.390625 30.609375 48.390625 
z
M 30.609375 56 
Q 42.328125 56 49.015625 48.375 
Q 55.71875 40.765625 55.71875 27.296875 
Q 55.71875 13.875 49.015625 6.21875 
Q 42.328125 -1.421875 30.609375 -1.421875 
Q 18.84375 -1.421875 12.171875 6.21875 
Q 5.515625 13.875 5.515625 27.296875 
Q 5.515625 40.765625 12.171875 48.375 
Q 18.84375 56 30.609375 56 
z
" id="DejaVuSans-111"/>
      <path d="M 37.109375 75.984375 
L 37.109375 68.5 
L 28.515625 68.5 
Q 23.6875 68.5 21.796875 66.546875 
Q 19.921875 64.59375 19.921875 59.515625 
L 19.921875 54.6875 
L 34.71875 54.6875 
L 34.71875 47.703125 
L 19.921875 47.703125 
L 19.921875 0 
L 10.890625 0 
L 10.890625 47.703125 
L 2.296875 47.703125 
L 2.296875 54.6875 
L 10.890625 54.6875 
L 10.890625 58.5 
Q 10.890625 67.625 15.140625 71.796875 
Q 19.390625 75.984375 28.609375 75.984375 
z
" id="DejaVuSans-102"/>
      <path d="M 4.203125 54.6875 
L 13.1875 54.6875 
L 24.421875 12.015625 
L 35.59375 54.6875 
L 46.1875 54.6875 
L 57.421875 12.015625 
L 68.609375 54.6875 
L 77.59375 54.6875 
L 63.28125 0 
L 52.6875 0 
L 40.921875 44.828125 
L 29.109375 0 
L 18.5 0 
z
" id="DejaVuSans-119"/>
      <path d="M 34.28125 27.484375 
Q 23.390625 27.484375 19.1875 25 
Q 14.984375 22.515625 14.984375 16.5 
Q 14.984375 11.71875 18.140625 8.90625 
Q 21.296875 6.109375 26.703125 6.109375 
Q 34.1875 6.109375 38.703125 11.40625 
Q 43.21875 16.703125 43.21875 25.484375 
L 43.21875 27.484375 
z
M 52.203125 31.203125 
L 52.203125 0 
L 43.21875 0 
L 43.21875 8.296875 
Q 40.140625 3.328125 35.546875 0.953125 
Q 30.953125 -1.421875 24.3125 -1.421875 
Q 15.921875 -1.421875 10.953125 3.296875 
Q 6 8.015625 6 15.921875 
Q 6 25.140625 12.171875 29.828125 
Q 18.359375 34.515625 30.609375 34.515625 
L 43.21875 34.515625 
L 43.21875 35.40625 
Q 43.21875 41.609375 39.140625 45 
Q 35.0625 48.390625 27.6875 48.390625 
Q 23 48.390625 18.546875 47.265625 
Q 14.109375 46.140625 10.015625 43.890625 
L 10.015625 52.203125 
Q 14.9375 54.109375 19.578125 55.046875 
Q 24.21875 56 28.609375 56 
Q 40.484375 56 46.34375 49.84375 
Q 52.203125 43.703125 52.203125 31.203125 
z
" id="DejaVuSans-97"/>
      <path d="M 18.109375 8.203125 
L 18.109375 -20.796875 
L 9.078125 -20.796875 
L 9.078125 54.6875 
L 18.109375 54.6875 
L 18.109375 46.390625 
Q 20.953125 51.265625 25.265625 53.625 
Q 29.59375 56 35.59375 56 
Q 45.5625 56 51.78125 48.09375 
Q 58.015625 40.1875 58.015625 27.296875 
Q 58.015625 14.40625 51.78125 6.484375 
Q 45.5625 -1.421875 35.59375 -1.421875 
Q 29.59375 -1.421875 25.265625 0.953125 
Q 20.953125 3.328125 18.109375 8.203125 
z
M 48.6875 27.296875 
Q 48.6875 37.203125 44.609375 42.84375 
Q 40.53125 48.484375 33.40625 48.484375 
Q 26.265625 48.484375 22.1875 42.84375 
Q 18.109375 37.203125 18.109375 27.296875 
Q 18.109375 17.390625 22.1875 11.75 
Q 26.265625 6.109375 33.40625 6.109375 
Q 40.53125 6.109375 44.609375 11.75 
Q 48.6875 17.390625 48.6875 27.296875 
z
" id="DejaVuSans-112"/>
      <path d="M 4.890625 31.390625 
L 31.203125 31.390625 
L 31.203125 23.390625 
L 4.890625 23.390625 
z
" id="DejaVuSans-45"/>
      <path d="M 44.28125 53.078125 
L 44.28125 44.578125 
Q 40.484375 46.53125 36.375 47.5 
Q 32.28125 48.484375 27.875 48.484375 
Q 21.1875 48.484375 17.84375 46.4375 
Q 14.5 44.390625 14.5 40.28125 
Q 14.5 37.15625 16.890625 35.375 
Q 19.28125 33.59375 26.515625 31.984375 
L 29.59375 31.296875 
Q 39.15625 29.25 43.1875 25.515625 
Q 47.21875 21.78125 47.21875 15.09375 
Q 47.21875 7.46875 41.1875 3.015625 
Q 35.15625 -1.421875 24.609375 -1.421875 
Q 20.21875 -1.421875 15.453125 -0.5625 
Q 10.6875 0.296875 5.421875 2 
L 5.421875 11.28125 
Q 10.40625 8.6875 15.234375 7.390625 
Q 20.0625 6.109375 24.8125 6.109375 
Q 31.15625 6.109375 34.5625 8.28125 
Q 37.984375 10.453125 37.984375 14.40625 
Q 37.984375 18.0625 35.515625 20.015625 
Q 33.0625 21.96875 24.703125 23.78125 
L 21.578125 24.515625 
Q 13.234375 26.265625 9.515625 29.90625 
Q 5.8125 33.546875 5.8125 39.890625 
Q 5.8125 47.609375 11.28125 51.796875 
Q 16.75 56 26.8125 56 
Q 31.78125 56 36.171875 55.265625 
Q 40.578125 54.546875 44.28125 53.078125 
z
" id="DejaVuSans-115"/>
      <path d="M 18.3125 70.21875 
L 18.3125 54.6875 
L 36.8125 54.6875 
L 36.8125 47.703125 
L 18.3125 47.703125 
L 18.3125 18.015625 
Q 18.3125 11.328125 20.140625 9.421875 
Q 21.96875 7.515625 27.59375 7.515625 
L 36.8125 7.515625 
L 36.8125 0 
L 27.59375 0 
Q 17.1875 0 13.234375 3.875 
Q 9.28125 7.765625 9.28125 18.015625 
L 9.28125 47.703125 
L 2.6875 47.703125 
L 2.6875 54.6875 
L 9.28125 54.6875 
L 9.28125 70.21875 
z
" id="DejaVuSans-116"/>
     </defs>
     <g transform="translate(279.900937 476.187187)scale(0.14 -0.14)">
      <use xlink:href="#DejaVuSans-78"/>
      <use x="74.804688" xlink:href="#DejaVuSans-117"/>
      <use x="138.183594" xlink:href="#DejaVuSans-109"/>
      <use x="235.595703" xlink:href="#DejaVuSans-98"/>
      <use x="299.072266" xlink:href="#DejaVuSans-101"/>
      <use x="360.595703" xlink:href="#DejaVuSans-114"/>
      <use x="401.708984" xlink:href="#DejaVuSans-32"/>
      <use x="433.496094" xlink:href="#DejaVuSans-111"/>
      <use x="494.677734" xlink:href="#DejaVuSans-102"/>
      <use x="529.882812" xlink:href="#DejaVuSans-32"/>
      <use x="561.669922" xlink:href="#DejaVuSans-119"/>
      <use x="643.457031" xlink:href="#DejaVuSans-97"/>
      <use x="704.736328" xlink:href="#DejaVuSans-114"/>
      <use x="744.099609" xlink:href="#DejaVuSans-109"/>
      <use x="841.511719" xlink:href="#DejaVuSans-117"/>
      <use x="904.890625" xlink:href="#DejaVuSans-112"/>
      <use x="968.367188" xlink:href="#DejaVuSans-45"/>
      <use x="1004.451172" xlink:href="#DejaVuSans-115"/>
      <use x="1056.550781" xlink:href="#DejaVuSans-116"/>
      <use x="1095.759766" xlink:href="#DejaVuSans-101"/>
      <use x="1157.283203" xlink:href="#DejaVuSans-112"/>
      <use x="1220.759766" xlink:href="#DejaVuSans-115"/>
     </g>
    </g>
   </g>
   <g id="matplotlib.axis_2">
    <g id="ytick_1">
     <g id="line2d_6">
      <path clip-path="url(#p3a5eb40e6f)" d="M 90 436.900891 
L 648 436.900891 
" style="fill:none;stroke:#b0b0b0;stroke-linecap:square;stroke-width:0.8;"/>
     </g>
     <g id="line2d_7">
      <defs>
       <path d="M 0 0 
L -3.5 0 
" id="mc90f23107d" style="stroke:#000000;stroke-width:0.8;"/>
      </defs>
      <g>
       <use style="stroke:#000000;stroke-width:0.8;" x="90" xlink:href="#mc90f23107d" y="436.900891"/>
      </g>
     </g>
     <g id="text_7">
      <!-- −5.0 -->
      <defs>
       <path d="M 10.59375 35.5 
L 73.1875 35.5 
L 73.1875 27.203125 
L 10.59375 27.203125 
z
" id="DejaVuSans-8722"/>
       <path d="M 10.6875 12.40625 
L 21 12.40625 
L 21 0 
L 10.6875 0 
z
" id="DejaVuSans-46"/>
      </defs>
      <g transform="translate(49.004062 442.219797)scale(0.14 -0.14)">
       <use xlink:href="#DejaVuSans-8722"/>
       <use x="83.789062" xlink:href="#DejaVuSans-53"/>
       <use x="147.412109" xlink:href="#DejaVuSans-46"/>
       <use x="179.199219" xlink:href="#DejaVuSans-48"/>
      </g>
     </g>
    </g>
    <g id="ytick_2">
     <g id="line2d_8">
      <path clip-path="url(#p3a5eb40e6f)" d="M 90 386.661816 
L 648 386.661816 
" style="fill:none;stroke:#b0b0b0;stroke-linecap:square;stroke-width:0.8;"/>
     </g>
     <g id="line2d_9">
      <g>
       <use style="stroke:#000000;stroke-width:0.8;" x="90" xlink:href="#mc90f23107d" y="386.661816"/>
      </g>
     </g>
     <g id="text_8">
      <!-- −2.5 -->
      <defs>
       <path d="M 19.1875 8.296875 
L 53.609375 8.296875 
L 53.609375 0 
L 7.328125 0 
L 7.328125 8.296875 
Q 12.9375 14.109375 22.625 23.890625 
Q 32.328125 33.6875 34.8125 36.53125 
Q 39.546875 41.84375 41.421875 45.53125 
Q 43.3125 49.21875 43.3125 52.78125 
Q 43.3125 58.59375 39.234375 62.25 
Q 35.15625 65.921875 28.609375 65.921875 
Q 23.96875 65.921875 18.8125 64.3125 
Q 13.671875 62.703125 7.8125 59.421875 
L 7.8125 69.390625 
Q 13.765625 71.78125 18.9375 73 
Q 24.125 74.21875 28.421875 74.21875 
Q 39.75 74.21875 46.484375 68.546875 
Q 53.21875 62.890625 53.21875 53.421875 
Q 53.21875 48.921875 51.53125 44.890625 
Q 49.859375 40.875 45.40625 35.40625 
Q 44.1875 33.984375 37.640625 27.21875 
Q 31.109375 20.453125 19.1875 8.296875 
z
" id="DejaVuSans-50"/>
      </defs>
      <g transform="translate(49.004062 391.980722)scale(0.14 -0.14)">
       <use xlink:href="#DejaVuSans-8722"/>
       <use x="83.789062" xlink:href="#DejaVuSans-50"/>
       <use x="147.412109" xlink:href="#DejaVuSans-46"/>
       <use x="179.199219" xlink:href="#DejaVuSans-53"/>
      </g>
     </g>
    </g>
    <g id="ytick_3">
     <g id="line2d_10">
      <path clip-path="url(#p3a5eb40e6f)" d="M 90 336.422742 
L 648 336.422742 
" style="fill:none;stroke:#b0b0b0;stroke-linecap:square;stroke-width:0.8;"/>
     </g>
     <g id="line2d_11">
      <g>
       <use style="stroke:#000000;stroke-width:0.8;" x="90" xlink:href="#mc90f23107d" y="336.422742"/>
      </g>
     </g>
     <g id="text_9">
      <!-- 0.0 -->
      <g transform="translate(60.735625 341.741648)scale(0.14 -0.14)">
       <use xlink:href="#DejaVuSans-48"/>
       <use x="63.623047" xlink:href="#DejaVuSans-46"/>
       <use x="95.410156" xlink:href="#DejaVuSans-48"/>
      </g>
     </g>
    </g>
    <g id="ytick_4">
     <g id="line2d_12">
      <path clip-path="url(#p3a5eb40e6f)" d="M 90 286.183667 
L 648 286.183667 
" style="fill:none;stroke:#b0b0b0;stroke-linecap:square;stroke-width:0.8;"/>
     </g>
     <g id="line2d_13">
      <g>
       <use style="stroke:#000000;stroke-width:0.8;" x="90" xlink:href="#mc90f23107d" y="286.183667"/>
      </g>
     </g>
     <g id="text_10">
      <!-- 2.5 -->
      <g transform="translate(60.735625 291.502573)scale(0.14 -0.14)">
       <use xlink:href="#DejaVuSans-50"/>
       <use x="63.623047" xlink:href="#DejaVuSans-46"/>
       <use x="95.410156" xlink:href="#DejaVuSans-53"/>
      </g>
     </g>
    </g>
    <g id="ytick_5">
     <g id="line2d_14">
      <path clip-path="url(#p3a5eb40e6f)" d="M 90 235.944593 
L 648 235.944593 
" style="fill:none;stroke:#b0b0b0;stroke-linecap:square;stroke-width:0.8;"/>
     </g>
     <g id="line2d_15">
      <g>
       <use style="stroke:#000000;stroke-width:0.8;" x="90" xlink:href="#mc90f23107d" y="235.944593"/>
      </g>
     </g>
     <g id="text_11">
      <!-- 5.0 -->
      <g transform="translate(60.735625 241.263499)scale(0.14 -0.14)">
       <use xlink:href="#DejaVuSans-53"/>
       <use x="63.623047" xlink:href="#DejaVuSans-46"/>
       <use x="95.410156" xlink:href="#DejaVuSans-48"/>
      </g>
     </g>
    </g>
    <g id="ytick_6">
     <g id="line2d_16">
      <path clip-path="url(#p3a5eb40e6f)" d="M 90 185.705518 
L 648 185.705518 
" style="fill:none;stroke:#b0b0b0;stroke-linecap:square;stroke-width:0.8;"/>
     </g>
     <g id="line2d_17">
      <g>
       <use style="stroke:#000000;stroke-width:0.8;" x="90" xlink:href="#mc90f23107d" y="185.705518"/>
      </g>
     </g>
     <g id="text_12">
      <!-- 7.5 -->
      <g transform="translate(60.735625 191.024424)scale(0.14 -0.14)">
       <use xlink:href="#DejaVuSans-55"/>
       <use x="63.623047" xlink:href="#DejaVuSans-46"/>
       <use x="95.410156" xlink:href="#DejaVuSans-53"/>
      </g>
     </g>
    </g>
    <g id="ytick_7">
     <g id="line2d_18">
      <path clip-path="url(#p3a5eb40e6f)" d="M 90 135.466444 
L 648 135.466444 
" style="fill:none;stroke:#b0b0b0;stroke-linecap:square;stroke-width:0.8;"/>
     </g>
     <g id="line2d_19">
      <g>
       <use style="stroke:#000000;stroke-width:0.8;" x="90" xlink:href="#mc90f23107d" y="135.466444"/>
      </g>
     </g>
     <g id="text_13">
      <!-- 10.0 -->
      <g transform="translate(51.828125 140.78535)scale(0.14 -0.14)">
       <use xlink:href="#DejaVuSans-49"/>
       <use x="63.623047" xlink:href="#DejaVuSans-48"/>
       <use x="127.246094" xlink:href="#DejaVuSans-46"/>
       <use x="159.033203" xlink:href="#DejaVuSans-48"/>
      </g>
     </g>
    </g>
    <g id="ytick_8">
     <g id="line2d_20">
      <path clip-path="url(#p3a5eb40e6f)" d="M 90 85.227369 
L 648 85.227369 
" style="fill:none;stroke:#b0b0b0;stroke-linecap:square;stroke-width:0.8;"/>
     </g>
     <g id="line2d_21">
      <g>
       <use style="stroke:#000000;stroke-width:0.8;" x="90" xlink:href="#mc90f23107d" y="85.227369"/>
      </g>
     </g>
     <g id="text_14">
      <!-- 12.5 -->
      <g transform="translate(51.828125 90.546275)scale(0.14 -0.14)">
       <use xlink:href="#DejaVuSans-49"/>
       <use x="63.623047" xlink:href="#DejaVuSans-50"/>
       <use x="127.246094" xlink:href="#DejaVuSans-46"/>
       <use x="159.033203" xlink:href="#DejaVuSans-53"/>
      </g>
     </g>
    </g>
    <g id="text_15">
     <!-- Prediction Horizon -->
     <defs>
      <path d="M 19.671875 64.796875 
L 19.671875 37.40625 
L 32.078125 37.40625 
Q 38.96875 37.40625 42.71875 40.96875 
Q 46.484375 44.53125 46.484375 51.125 
Q 46.484375 57.671875 42.71875 61.234375 
Q 38.96875 64.796875 32.078125 64.796875 
z
M 9.8125 72.90625 
L 32.078125 72.90625 
Q 44.34375 72.90625 50.609375 67.359375 
Q 56.890625 61.8125 56.890625 51.125 
Q 56.890625 40.328125 50.609375 34.8125 
Q 44.34375 29.296875 32.078125 29.296875 
L 19.671875 29.296875 
L 19.671875 0 
L 9.8125 0 
z
" id="DejaVuSans-80"/>
      <path d="M 45.40625 46.390625 
L 45.40625 75.984375 
L 54.390625 75.984375 
L 54.390625 0 
L 45.40625 0 
L 45.40625 8.203125 
Q 42.578125 3.328125 38.25 0.953125 
Q 33.9375 -1.421875 27.875 -1.421875 
Q 17.96875 -1.421875 11.734375 6.484375 
Q 5.515625 14.40625 5.515625 27.296875 
Q 5.515625 40.1875 11.734375 48.09375 
Q 17.96875 56 27.875 56 
Q 33.9375 56 38.25 53.625 
Q 42.578125 51.265625 45.40625 46.390625 
z
M 14.796875 27.296875 
Q 14.796875 17.390625 18.875 11.75 
Q 22.953125 6.109375 30.078125 6.109375 
Q 37.203125 6.109375 41.296875 11.75 
Q 45.40625 17.390625 45.40625 27.296875 
Q 45.40625 37.203125 41.296875 42.84375 
Q 37.203125 48.484375 30.078125 48.484375 
Q 22.953125 48.484375 18.875 42.84375 
Q 14.796875 37.203125 14.796875 27.296875 
z
" id="DejaVuSans-100"/>
      <path d="M 9.421875 54.6875 
L 18.40625 54.6875 
L 18.40625 0 
L 9.421875 0 
z
M 9.421875 75.984375 
L 18.40625 75.984375 
L 18.40625 64.59375 
L 9.421875 64.59375 
z
" id="DejaVuSans-105"/>
      <path d="M 48.78125 52.59375 
L 48.78125 44.1875 
Q 44.96875 46.296875 41.140625 47.34375 
Q 37.3125 48.390625 33.40625 48.390625 
Q 24.65625 48.390625 19.8125 42.84375 
Q 14.984375 37.3125 14.984375 27.296875 
Q 14.984375 17.28125 19.8125 11.734375 
Q 24.65625 6.203125 33.40625 6.203125 
Q 37.3125 6.203125 41.140625 7.25 
Q 44.96875 8.296875 48.78125 10.40625 
L 48.78125 2.09375 
Q 45.015625 0.34375 40.984375 -0.53125 
Q 36.96875 -1.421875 32.421875 -1.421875 
Q 20.0625 -1.421875 12.78125 6.34375 
Q 5.515625 14.109375 5.515625 27.296875 
Q 5.515625 40.671875 12.859375 48.328125 
Q 20.21875 56 33.015625 56 
Q 37.15625 56 41.109375 55.140625 
Q 45.0625 54.296875 48.78125 52.59375 
z
" id="DejaVuSans-99"/>
      <path d="M 54.890625 33.015625 
L 54.890625 0 
L 45.90625 0 
L 45.90625 32.71875 
Q 45.90625 40.484375 42.875 44.328125 
Q 39.84375 48.1875 33.796875 48.1875 
Q 26.515625 48.1875 22.3125 43.546875 
Q 18.109375 38.921875 18.109375 30.90625 
L 18.109375 0 
L 9.078125 0 
L 9.078125 54.6875 
L 18.109375 54.6875 
L 18.109375 46.1875 
Q 21.34375 51.125 25.703125 53.5625 
Q 30.078125 56 35.796875 56 
Q 45.21875 56 50.046875 50.171875 
Q 54.890625 44.34375 54.890625 33.015625 
z
" id="DejaVuSans-110"/>
      <path d="M 9.8125 72.90625 
L 19.671875 72.90625 
L 19.671875 43.015625 
L 55.515625 43.015625 
L 55.515625 72.90625 
L 65.375 72.90625 
L 65.375 0 
L 55.515625 0 
L 55.515625 34.71875 
L 19.671875 34.71875 
L 19.671875 0 
L 9.8125 0 
z
" id="DejaVuSans-72"/>
      <path d="M 5.515625 54.6875 
L 48.1875 54.6875 
L 48.1875 46.484375 
L 14.40625 7.171875 
L 48.1875 7.171875 
L 48.1875 0 
L 4.296875 0 
L 4.296875 8.203125 
L 38.09375 47.515625 
L 5.515625 47.515625 
z
" id="DejaVuSans-122"/>
     </defs>
     <g transform="translate(42.0925 314.499063)rotate(-90)scale(0.14 -0.14)">
      <use xlink:href="#DejaVuSans-80"/>
      <use x="58.552734" xlink:href="#DejaVuSans-114"/>
      <use x="97.416016" xlink:href="#DejaVuSans-101"/>
      <use x="158.939453" xlink:href="#DejaVuSans-100"/>
      <use x="222.416016" xlink:href="#DejaVuSans-105"/>
      <use x="250.199219" xlink:href="#DejaVuSans-99"/>
      <use x="305.179688" xlink:href="#DejaVuSans-116"/>
      <use x="344.388672" xlink:href="#DejaVuSans-105"/>
      <use x="372.171875" xlink:href="#DejaVuSans-111"/>
      <use x="433.353516" xlink:href="#DejaVuSans-110"/>
      <use x="496.732422" xlink:href="#DejaVuSans-32"/>
      <use x="528.519531" xlink:href="#DejaVuSans-72"/>
      <use x="603.714844" xlink:href="#DejaVuSans-111"/>
      <use x="664.896484" xlink:href="#DejaVuSans-114"/>
      <use x="706.009766" xlink:href="#DejaVuSans-105"/>
      <use x="733.792969" xlink:href="#DejaVuSans-122"/>
      <use x="786.283203" xlink:href="#DejaVuSans-111"/>
      <use x="847.464844" xlink:href="#DejaVuSans-110"/>
     </g>
    </g>
   </g>
   <g id="line2d_22">
    <path clip-path="url(#p3a5eb40e6f)" d="M 145.8 336.874893 
L 145.8 171.387382 
" style="fill:none;stroke:#3d3d3d;stroke-linecap:square;stroke-width:1.5;"/>
   </g>
   <g id="line2d_23">
    <path clip-path="url(#p3a5eb40e6f)" d="M 145.8 272.669356 
L 145.8 176.813202 
" style="fill:none;stroke:#3d3d3d;stroke-linecap:square;stroke-width:4.5;"/>
   </g>
   <g id="line2d_24">
    <path clip-path="url(#p3a5eb40e6f)" d="M 257.4 336.874893 
L 257.4 166.413713 
" style="fill:none;stroke:#3d3d3d;stroke-linecap:square;stroke-width:1.5;"/>
   </g>
   <g id="line2d_25">
    <path clip-path="url(#p3a5eb40e6f)" d="M 257.4 252.88772 
L 257.4 182.35206 
" style="fill:none;stroke:#3d3d3d;stroke-linecap:square;stroke-width:4.5;"/>
   </g>
   <g id="line2d_26">
    <path clip-path="url(#p3a5eb40e6f)" d="M 369 293.920485 
L 369 159.179287 
" style="fill:none;stroke:#3d3d3d;stroke-linecap:square;stroke-width:1.5;"/>
   </g>
   <g id="line2d_27">
    <path clip-path="url(#p3a5eb40e6f)" d="M 369 256.278858 
L 369 172.856875 
" style="fill:none;stroke:#3d3d3d;stroke-linecap:square;stroke-width:4.5;"/>
   </g>
   <g id="line2d_28">
    <path clip-path="url(#p3a5eb40e6f)" d="M 480.6 336.874893 
L 480.6 164.605107 
" style="fill:none;stroke:#3d3d3d;stroke-linecap:square;stroke-width:1.5;"/>
   </g>
   <g id="line2d_29">
    <path clip-path="url(#p3a5eb40e6f)" d="M 480.6 319.354016 
L 480.6 190.829904 
" style="fill:none;stroke:#3d3d3d;stroke-linecap:square;stroke-width:4.5;"/>
   </g>
   <g id="line2d_30">
    <path clip-path="url(#p3a5eb40e6f)" d="M 592.2 336.874893 
L 592.2 156.466377 
" style="fill:none;stroke:#3d3d3d;stroke-linecap:square;stroke-width:1.5;"/>
   </g>
   <g id="line2d_31">
    <path clip-path="url(#p3a5eb40e6f)" d="M 592.2 256.16582 
L 592.2 173.535102 
" style="fill:none;stroke:#3d3d3d;stroke-linecap:square;stroke-width:4.5;"/>
   </g>
   <g id="patch_3">
    <path d="M 90 441 
L 90 60.48 
" style="fill:none;stroke:#000000;stroke-linecap:square;stroke-linejoin:miter;stroke-width:0.8;"/>
   </g>
   <g id="patch_4">
    <path d="M 648 441 
L 648 60.48 
" style="fill:none;stroke:#000000;stroke-linecap:square;stroke-linejoin:miter;stroke-width:0.8;"/>
   </g>
   <g id="patch_5">
    <path d="M 90 441 
L 648 441 
" style="fill:none;stroke:#000000;stroke-linecap:square;stroke-linejoin:miter;stroke-width:0.8;"/>
   </g>
   <g id="patch_6">
    <path d="M 90 60.48 
L 648 60.48 
" style="fill:none;stroke:#000000;stroke-linecap:square;stroke-linejoin:miter;stroke-width:0.8;"/>
   </g>
   <g id="PathCollection_1">
    <defs>
     <path d="M 0 1.5 
C 0.397805 1.5 0.77937 1.341951 1.06066 1.06066 
C 1.341951 0.77937 1.5 0.397805 1.5 0 
C 1.5 -0.397805 1.341951 -0.77937 1.06066 -1.06066 
C 0.77937 -1.341951 0.397805 -1.5 0 -1.5 
C -0.397805 -1.5 -0.77937 -1.341951 -1.06066 -1.06066 
C -1.341951 -0.77937 -1.5 -0.397805 -1.5 0 
C -1.5 0.397805 -1.341951 0.77937 -1.06066 1.06066 
C -0.77937 1.341951 -0.397805 1.5 0 1.5 
z
" id="m8d81f04320" style="stroke:#3d3d3d;"/>
    </defs>
    <g clip-path="url(#p3a5eb40e6f)">
     <use style="fill:#ffffff;stroke:#3d3d3d;" x="145.8" xlink:href="#m8d81f04320" y="210.724577"/>
    </g>
   </g>
   <g id="PathCollection_2">
    <g clip-path="url(#p3a5eb40e6f)">
     <use style="fill:#ffffff;stroke:#3d3d3d;" x="257.4" xlink:href="#m8d81f04320" y="205.072681"/>
    </g>
   </g>
   <g id="PathCollection_3">
    <g clip-path="url(#p3a5eb40e6f)">
     <use style="fill:#ffffff;stroke:#3d3d3d;" x="369" xlink:href="#m8d81f04320" y="198.290406"/>
    </g>
   </g>
   <g id="PathCollection_4">
    <g clip-path="url(#p3a5eb40e6f)">
     <use style="fill:#ffffff;stroke:#3d3d3d;" x="480.6" xlink:href="#m8d81f04320" y="247.574938"/>
    </g>
   </g>
   <g id="PathCollection_5">
    <g clip-path="url(#p3a5eb40e6f)">
     <use style="fill:#ffffff;stroke:#3d3d3d;" x="592.2" xlink:href="#m8d81f04320" y="202.133695"/>
    </g>
   </g>
  </g>
 </g>
 <defs>
  <clipPath id="p3a5eb40e6f">
   <rect height="380.52" width="558" x="90" y="60.48"/>
  </clipPath>
 </defs>
</svg>
