<?xml version="1.0" encoding="utf-8" standalone="no"?>
<!DOCTYPE svg PUBLIC "-//W3C//DTD SVG 1.1//EN"
  "http://www.w3.org/Graphics/SVG/1.1/DTD/svg11.dtd">
<!-- Created with matplotlib (https://matplotlib.org/) -->
<svg height="504pt" version="1.1" viewBox="0 0 720 504" width="720pt" xmlns="http://www.w3.org/2000/svg" xmlns:xlink="http://www.w3.org/1999/xlink">
 <defs>
  <style type="text/css">
*{stroke-linecap:butt;stroke-linejoin:round;}
  </style>
 </defs>
 <g id="figure_1">
  <g id="patch_1">
   <path d="M 0 504 
L 720 504 
L 720 0 
L 0 0 
z
" style="fill:#ffffff;"/>
  </g>
  <g id="axes_1">
   <g id="patch_2">
    <path d="M 90 441 
L 648 441 
L 648 60.48 
L 90 60.48 
z
" style="fill:#ffffff;"/>
   </g>
   <g id="PolyCollection_1">
    <defs>
     <path d="M 240.771574 -157.859214 
L 218.228426 -157.859214 
L 216.01847 -157.894287 
L 213.500725 -157.92936 
L 210.659895 -157.964433 
L 207.485672 -157.999507 
L 203.973838 -158.03458 
L 200.12726 -158.069653 
L 195.956737 -158.104726 
L 191.48164 -158.139799 
L 186.730269 -158.174872 
L 181.739897 -158.209945 
L 176.556457 -158.245018 
L 171.233861 -158.280092 
L 165.832954 -158.315165 
L 160.42013 -158.350238 
L 155.065655 -158.385311 
L 149.841768 -158.420384 
L 144.82065 -158.455457 
L 140.072335 -158.49053 
L 135.662698 -158.525603 
L 131.651574 -158.560676 
L 128.091139 -158.59575 
L 125.024598 -158.630823 
L 122.485248 -158.665896 
L 120.495935 -158.700969 
L 119.068936 -158.736042 
L 118.206206 -158.771115 
L 117.9 -158.806188 
L 118.133763 -158.841261 
L 118.88326 -158.876334 
L 120.117839 -158.911408 
L 121.801771 -158.946481 
L 123.895584 -158.981554 
L 126.357332 -159.016627 
L 129.143756 -159.0517 
L 132.211297 -159.086773 
L 135.516938 -159.121846 
L 139.018884 -159.156919 
L 142.677067 -159.191992 
L 146.453503 -159.227066 
L 150.312518 -159.262139 
L 154.220859 -159.297212 
L 158.147728 -159.332285 
L 162.064737 -159.367358 
L 165.945833 -159.402431 
L 169.767175 -159.437504 
L 173.507005 -159.472577 
L 177.14551 -159.50765 
L 180.664686 -159.542724 
L 184.048206 -159.577797 
L 187.281318 -159.61287 
L 190.350761 -159.647943 
L 193.244716 -159.683016 
L 195.952798 -159.718089 
L 198.466092 -159.753162 
L 200.777228 -159.788235 
L 202.880509 -159.823308 
L 204.772069 -159.858382 
L 206.450063 -159.893455 
L 207.914874 -159.928528 
L 209.169309 -159.963601 
L 210.218776 -159.998674 
L 211.071422 -160.033747 
L 211.7382 -160.06882 
L 212.232853 -160.103893 
L 212.571807 -160.138966 
L 212.773952 -160.17404 
L 212.860316 -160.209113 
L 212.853628 -160.244186 
L 212.777795 -160.279259 
L 212.657293 -160.314332 
L 212.516511 -160.349405 
L 212.379063 -160.384478 
L 212.267116 -160.419551 
L 212.200745 -160.454625 
L 212.197367 -160.489698 
L 212.271268 -160.524771 
L 212.433246 -160.559844 
L 212.690403 -160.594917 
L 213.046072 -160.62999 
L 213.499893 -160.665063 
L 214.048035 -160.700136 
L 214.683538 -160.735209 
L 215.39676 -160.770283 
L 216.17591 -160.805356 
L 217.007623 -160.840429 
L 217.877567 -160.875502 
L 218.771028 -160.910575 
L 219.673475 -160.945648 
L 220.571058 -160.980721 
L 221.451032 -161.015794 
L 222.302094 -161.050867 
L 223.114624 -161.085941 
L 223.880834 -161.121014 
L 224.594818 -161.156087 
L 225.25253 -161.19116 
L 225.851681 -161.226233 
L 226.391585 -161.261306 
L 226.872966 -161.296379 
L 227.29773 -161.331452 
L 231.70227 -161.331452 
L 231.70227 -161.331452 
L 232.127034 -161.296379 
L 232.608415 -161.261306 
L 233.148319 -161.226233 
L 233.74747 -161.19116 
L 234.405182 -161.156087 
L 235.119166 -161.121014 
L 235.885376 -161.085941 
L 236.697906 -161.050867 
L 237.548968 -161.015794 
L 238.428942 -160.980721 
L 239.326525 -160.945648 
L 240.228972 -160.910575 
L 241.122433 -160.875502 
L 241.992377 -160.840429 
L 242.82409 -160.805356 
L 243.60324 -160.770283 
L 244.316462 -160.735209 
L 244.951965 -160.700136 
L 245.500107 -160.665063 
L 245.953928 -160.62999 
L 246.309597 -160.594917 
L 246.566754 -160.559844 
L 246.728732 -160.524771 
L 246.802633 -160.489698 
L 246.799255 -160.454625 
L 246.732884 -160.419551 
L 246.620937 -160.384478 
L 246.483489 -160.349405 
L 246.342707 -160.314332 
L 246.222205 -160.279259 
L 246.146372 -160.244186 
L 246.139684 -160.209113 
L 246.226048 -160.17404 
L 246.428193 -160.138966 
L 246.767147 -160.103893 
L 247.2618 -160.06882 
L 247.928578 -160.033747 
L 248.781224 -159.998674 
L 249.830691 -159.963601 
L 251.085126 -159.928528 
L 252.549937 -159.893455 
L 254.227931 -159.858382 
L 256.119491 -159.823308 
L 258.222772 -159.788235 
L 260.533908 -159.753162 
L 263.047202 -159.718089 
L 265.755284 -159.683016 
L 268.649239 -159.647943 
L 271.718682 -159.61287 
L 274.951794 -159.577797 
L 278.335314 -159.542724 
L 281.85449 -159.50765 
L 285.492995 -159.472577 
L 289.232825 -159.437504 
L 293.054167 -159.402431 
L 296.935263 -159.367358 
L 300.852272 -159.332285 
L 304.779141 -159.297212 
L 308.687482 -159.262139 
L 312.546497 -159.227066 
L 316.322933 -159.191992 
L 319.981116 -159.156919 
L 323.483062 -159.121846 
L 326.788703 -159.086773 
L 329.856244 -159.0517 
L 332.642668 -159.016627 
L 335.104416 -158.981554 
L 337.198229 -158.946481 
L 338.882161 -158.911408 
L 340.11674 -158.876334 
L 340.866237 -158.841261 
L 341.1 -158.806188 
L 340.793794 -158.771115 
L 339.931064 -158.736042 
L 338.504065 -158.700969 
L 336.514752 -158.665896 
L 333.975402 -158.630823 
L 330.908861 -158.59575 
L 327.348426 -158.560676 
L 323.337302 -158.525603 
L 318.927665 -158.49053 
L 314.17935 -158.455457 
L 309.158232 -158.420384 
L 303.934345 -158.385311 
L 298.57987 -158.350238 
L 293.167046 -158.315165 
L 287.766139 -158.280092 
L 282.443543 -158.245018 
L 277.260103 -158.209945 
L 272.269731 -158.174872 
L 267.51836 -158.139799 
L 263.043263 -158.104726 
L 258.87274 -158.069653 
L 255.026162 -158.03458 
L 251.514328 -157.999507 
L 248.340105 -157.964433 
L 245.499275 -157.92936 
L 242.98153 -157.894287 
L 240.771574 -157.859214 
z
" id="mf34171879a" style="stroke:#3f3f3f;stroke-width:1.5;"/>
    </defs>
    <g clip-path="url(#p416d4387af)">
     <use style="fill:#3274a1;stroke:#3f3f3f;stroke-width:1.5;" x="0" xlink:href="#mf34171879a" y="504"/>
    </g>
   </g>
   <g id="PolyCollection_2">
    <defs>
     <path d="M 508.522264 -80.296364 
L 508.477736 -80.296364 
L 508.473407 -83.790579 
L 508.468487 -87.284793 
L 508.46295 -90.779008 
L 508.45678 -94.273223 
L 508.449973 -97.767438 
L 508.442539 -101.261653 
L 508.434501 -104.755868 
L 508.425898 -108.250083 
L 508.416783 -111.744298 
L 508.407223 -115.238512 
L 508.397296 -118.732727 
L 508.387088 -122.226942 
L 508.376691 -125.721157 
L 508.366196 -129.215372 
L 508.355691 -132.709587 
L 508.345254 -136.203802 
L 508.334947 -139.698017 
L 508.324815 -143.192231 
L 508.314877 -146.686446 
L 508.305127 -150.180661 
L 508.295531 -153.674876 
L 508.286027 -157.169091 
L 508.276525 -160.663306 
L 508.266913 -164.157521 
L 508.257058 -167.651736 
L 508.246818 -171.14595 
L 508.236041 -174.640165 
L 508.224581 -178.13438 
L 508.212303 -181.628595 
L 508.199089 -185.12281 
L 508.184849 -188.617025 
L 508.169523 -192.11124 
L 508.15309 -195.605455 
L 508.135568 -199.099669 
L 508.117011 -202.593884 
L 508.097513 -206.088099 
L 508.077203 -209.582314 
L 508.056233 -213.076529 
L 508.034779 -216.570744 
L 508.013025 -220.064959 
L 507.991157 -223.559174 
L 507.969356 -227.053388 
L 507.947785 -230.547603 
L 507.926581 -234.041818 
L 507.905853 -237.536033 
L 507.885673 -241.030248 
L 507.866078 -244.524463 
L 507.847065 -248.018678 
L 507.8286 -251.512893 
L 507.810617 -255.007107 
L 507.79303 -258.501322 
L 507.775738 -261.995537 
L 507.758638 -265.489752 
L 507.741636 -268.983967 
L 507.724659 -272.478182 
L 507.707664 -275.972397 
L 507.69065 -279.466612 
L 507.673668 -282.960826 
L 507.656823 -286.455041 
L 507.640283 -289.949256 
L 507.624278 -293.443471 
L 507.609092 -296.937686 
L 507.595068 -300.431901 
L 507.582585 -303.926116 
L 507.572058 -307.420331 
L 507.563914 -310.914545 
L 507.558579 -314.40876 
L 507.556461 -317.902975 
L 507.557927 -321.39719 
L 507.563291 -324.891405 
L 507.572796 -328.38562 
L 507.586597 -331.879835 
L 507.604758 -335.37405 
L 507.627239 -338.868264 
L 507.653901 -342.362479 
L 507.6845 -345.856694 
L 507.7187 -349.350909 
L 507.756082 -352.845124 
L 507.796155 -356.339339 
L 507.838375 -359.833554 
L 507.882163 -363.327769 
L 507.926922 -366.821983 
L 507.972056 -370.316198 
L 508.01699 -373.810413 
L 508.061181 -377.304628 
L 508.104138 -380.798843 
L 508.14543 -384.293058 
L 508.18469 -387.787273 
L 508.221627 -391.281488 
L 508.256022 -394.775702 
L 508.287729 -398.269917 
L 508.316671 -401.764132 
L 508.342835 -405.258347 
L 508.366263 -408.752562 
L 508.387044 -412.246777 
L 508.405308 -415.740992 
L 508.421212 -419.235207 
L 508.434938 -422.729421 
L 508.446676 -426.223636 
L 508.553324 -426.223636 
L 508.553324 -426.223636 
L 508.565062 -422.729421 
L 508.578788 -419.235207 
L 508.594692 -415.740992 
L 508.612956 -412.246777 
L 508.633737 -408.752562 
L 508.657165 -405.258347 
L 508.683329 -401.764132 
L 508.712271 -398.269917 
L 508.743978 -394.775702 
L 508.778373 -391.281488 
L 508.81531 -387.787273 
L 508.85457 -384.293058 
L 508.895862 -380.798843 
L 508.938819 -377.304628 
L 508.98301 -373.810413 
L 509.027944 -370.316198 
L 509.073078 -366.821983 
L 509.117837 -363.327769 
L 509.161625 -359.833554 
L 509.203845 -356.339339 
L 509.243918 -352.845124 
L 509.2813 -349.350909 
L 509.3155 -345.856694 
L 509.346099 -342.362479 
L 509.372761 -338.868264 
L 509.395242 -335.37405 
L 509.413403 -331.879835 
L 509.427204 -328.38562 
L 509.436709 -324.891405 
L 509.442073 -321.39719 
L 509.443539 -317.902975 
L 509.441421 -314.40876 
L 509.436086 -310.914545 
L 509.427942 -307.420331 
L 509.417415 -303.926116 
L 509.404932 -300.431901 
L 509.390908 -296.937686 
L 509.375722 -293.443471 
L 509.359717 -289.949256 
L 509.343177 -286.455041 
L 509.326332 -282.960826 
L 509.30935 -279.466612 
L 509.292336 -275.972397 
L 509.275341 -272.478182 
L 509.258364 -268.983967 
L 509.241362 -265.489752 
L 509.224262 -261.995537 
L 509.20697 -258.501322 
L 509.189383 -255.007107 
L 509.1714 -251.512893 
L 509.152935 -248.018678 
L 509.133922 -244.524463 
L 509.114327 -241.030248 
L 509.094147 -237.536033 
L 509.073419 -234.041818 
L 509.052215 -230.547603 
L 509.030644 -227.053388 
L 509.008843 -223.559174 
L 508.986975 -220.064959 
L 508.965221 -216.570744 
L 508.943767 -213.076529 
L 508.922797 -209.582314 
L 508.902487 -206.088099 
L 508.882989 -202.593884 
L 508.864432 -199.099669 
L 508.84691 -195.605455 
L 508.830477 -192.11124 
L 508.815151 -188.617025 
L 508.800911 -185.12281 
L 508.787697 -181.628595 
L 508.775419 -178.13438 
L 508.763959 -174.640165 
L 508.753182 -171.14595 
L 508.742942 -167.651736 
L 508.733087 -164.157521 
L 508.723475 -160.663306 
L 508.713973 -157.169091 
L 508.704469 -153.674876 
L 508.694873 -150.180661 
L 508.685123 -146.686446 
L 508.675185 -143.192231 
L 508.665053 -139.698017 
L 508.654746 -136.203802 
L 508.644309 -132.709587 
L 508.633804 -129.215372 
L 508.623309 -125.721157 
L 508.612912 -122.226942 
L 508.602704 -118.732727 
L 508.592777 -115.238512 
L 508.583217 -111.744298 
L 508.574102 -108.250083 
L 508.565499 -104.755868 
L 508.557461 -101.261653 
L 508.550027 -97.767438 
L 508.54322 -94.273223 
L 508.53705 -90.779008 
L 508.531513 -87.284793 
L 508.526593 -83.790579 
L 508.522264 -80.296364 
z
" id="m2f835cb6ec" style="stroke:#3f3f3f;stroke-width:1.5;"/>
    </defs>
    <g clip-path="url(#p416d4387af)">
     <use style="fill:#e1812c;stroke:#3f3f3f;stroke-width:1.5;" x="0" xlink:href="#m2f835cb6ec" y="504"/>
    </g>
   </g>
   <g id="matplotlib.axis_1">
    <g id="xtick_1">
     <g id="line2d_1">
      <defs>
       <path d="M 0 0 
L 0 3.5 
" id="m671e0973e2" style="stroke:#000000;stroke-width:0.8;"/>
      </defs>
      <g>
       <use style="stroke:#000000;stroke-width:0.8;" x="229.5" xlink:href="#m671e0973e2" y="441"/>
      </g>
     </g>
     <g id="text_1">
      <!-- Identity -->
      <defs>
       <path d="M 9.8125 72.90625 
L 19.671875 72.90625 
L 19.671875 0 
L 9.8125 0 
z
" id="DejaVuSans-73"/>
       <path d="M 45.40625 46.390625 
L 45.40625 75.984375 
L 54.390625 75.984375 
L 54.390625 0 
L 45.40625 0 
L 45.40625 8.203125 
Q 42.578125 3.328125 38.25 0.953125 
Q 33.9375 -1.421875 27.875 -1.421875 
Q 17.96875 -1.421875 11.734375 6.484375 
Q 5.515625 14.40625 5.515625 27.296875 
Q 5.515625 40.1875 11.734375 48.09375 
Q 17.96875 56 27.875 56 
Q 33.9375 56 38.25 53.625 
Q 42.578125 51.265625 45.40625 46.390625 
z
M 14.796875 27.296875 
Q 14.796875 17.390625 18.875 11.75 
Q 22.953125 6.109375 30.078125 6.109375 
Q 37.203125 6.109375 41.296875 11.75 
Q 45.40625 17.390625 45.40625 27.296875 
Q 45.40625 37.203125 41.296875 42.84375 
Q 37.203125 48.484375 30.078125 48.484375 
Q 22.953125 48.484375 18.875 42.84375 
Q 14.796875 37.203125 14.796875 27.296875 
z
" id="DejaVuSans-100"/>
       <path d="M 56.203125 29.59375 
L 56.203125 25.203125 
L 14.890625 25.203125 
Q 15.484375 15.921875 20.484375 11.0625 
Q 25.484375 6.203125 34.421875 6.203125 
Q 39.59375 6.203125 44.453125 7.46875 
Q 49.3125 8.734375 54.109375 11.28125 
L 54.109375 2.78125 
Q 49.265625 0.734375 44.1875 -0.34375 
Q 39.109375 -1.421875 33.890625 -1.421875 
Q 20.796875 -1.421875 13.15625 6.1875 
Q 5.515625 13.8125 5.515625 26.8125 
Q 5.515625 40.234375 12.765625 48.109375 
Q 20.015625 56 32.328125 56 
Q 43.359375 56 49.78125 48.890625 
Q 56.203125 41.796875 56.203125 29.59375 
z
M 47.21875 32.234375 
Q 47.125 39.59375 43.09375 43.984375 
Q 39.0625 48.390625 32.421875 48.390625 
Q 24.90625 48.390625 20.390625 44.140625 
Q 15.875 39.890625 15.1875 32.171875 
z
" id="DejaVuSans-101"/>
       <path d="M 54.890625 33.015625 
L 54.890625 0 
L 45.90625 0 
L 45.90625 32.71875 
Q 45.90625 40.484375 42.875 44.328125 
Q 39.84375 48.1875 33.796875 48.1875 
Q 26.515625 48.1875 22.3125 43.546875 
Q 18.109375 38.921875 18.109375 30.90625 
L 18.109375 0 
L 9.078125 0 
L 9.078125 54.6875 
L 18.109375 54.6875 
L 18.109375 46.1875 
Q 21.34375 51.125 25.703125 53.5625 
Q 30.078125 56 35.796875 56 
Q 45.21875 56 50.046875 50.171875 
Q 54.890625 44.34375 54.890625 33.015625 
z
" id="DejaVuSans-110"/>
       <path d="M 18.3125 70.21875 
L 18.3125 54.6875 
L 36.8125 54.6875 
L 36.8125 47.703125 
L 18.3125 47.703125 
L 18.3125 18.015625 
Q 18.3125 11.328125 20.140625 9.421875 
Q 21.96875 7.515625 27.59375 7.515625 
L 36.8125 7.515625 
L 36.8125 0 
L 27.59375 0 
Q 17.1875 0 13.234375 3.875 
Q 9.28125 7.765625 9.28125 18.015625 
L 9.28125 47.703125 
L 2.6875 47.703125 
L 2.6875 54.6875 
L 9.28125 54.6875 
L 9.28125 70.21875 
z
" id="DejaVuSans-116"/>
       <path d="M 9.421875 54.6875 
L 18.40625 54.6875 
L 18.40625 0 
L 9.421875 0 
z
M 9.421875 75.984375 
L 18.40625 75.984375 
L 18.40625 64.59375 
L 9.421875 64.59375 
z
" id="DejaVuSans-105"/>
       <path d="M 32.171875 -5.078125 
Q 28.375 -14.84375 24.75 -17.8125 
Q 21.140625 -20.796875 15.09375 -20.796875 
L 7.90625 -20.796875 
L 7.90625 -13.28125 
L 13.1875 -13.28125 
Q 16.890625 -13.28125 18.9375 -11.515625 
Q 21 -9.765625 23.484375 -3.21875 
L 25.09375 0.875 
L 2.984375 54.6875 
L 12.5 54.6875 
L 29.59375 11.921875 
L 46.6875 54.6875 
L 56.203125 54.6875 
z
" id="DejaVuSans-121"/>
      </defs>
      <g transform="translate(202.671406 458.637812)scale(0.14 -0.14)">
       <use xlink:href="#DejaVuSans-73"/>
       <use x="29.492188" xlink:href="#DejaVuSans-100"/>
       <use x="92.96875" xlink:href="#DejaVuSans-101"/>
       <use x="154.492188" xlink:href="#DejaVuSans-110"/>
       <use x="217.871094" xlink:href="#DejaVuSans-116"/>
       <use x="257.080078" xlink:href="#DejaVuSans-105"/>
       <use x="284.863281" xlink:href="#DejaVuSans-116"/>
       <use x="324.072266" xlink:href="#DejaVuSans-121"/>
      </g>
     </g>
    </g>
    <g id="xtick_2">
     <g id="line2d_2">
      <g>
       <use style="stroke:#000000;stroke-width:0.8;" x="508.5" xlink:href="#m671e0973e2" y="441"/>
      </g>
     </g>
     <g id="text_2">
      <!-- Pathak -->
      <defs>
       <path d="M 19.671875 64.796875 
L 19.671875 37.40625 
L 32.078125 37.40625 
Q 38.96875 37.40625 42.71875 40.96875 
Q 46.484375 44.53125 46.484375 51.125 
Q 46.484375 57.671875 42.71875 61.234375 
Q 38.96875 64.796875 32.078125 64.796875 
z
M 9.8125 72.90625 
L 32.078125 72.90625 
Q 44.34375 72.90625 50.609375 67.359375 
Q 56.890625 61.8125 56.890625 51.125 
Q 56.890625 40.328125 50.609375 34.8125 
Q 44.34375 29.296875 32.078125 29.296875 
L 19.671875 29.296875 
L 19.671875 0 
L 9.8125 0 
z
" id="DejaVuSans-80"/>
       <path d="M 34.28125 27.484375 
Q 23.390625 27.484375 19.1875 25 
Q 14.984375 22.515625 14.984375 16.5 
Q 14.984375 11.71875 18.140625 8.90625 
Q 21.296875 6.109375 26.703125 6.109375 
Q 34.1875 6.109375 38.703125 11.40625 
Q 43.21875 16.703125 43.21875 25.484375 
L 43.21875 27.484375 
z
M 52.203125 31.203125 
L 52.203125 0 
L 43.21875 0 
L 43.21875 8.296875 
Q 40.140625 3.328125 35.546875 0.953125 
Q 30.953125 -1.421875 24.3125 -1.421875 
Q 15.921875 -1.421875 10.953125 3.296875 
Q 6 8.015625 6 15.921875 
Q 6 25.140625 12.171875 29.828125 
Q 18.359375 34.515625 30.609375 34.515625 
L 43.21875 34.515625 
L 43.21875 35.40625 
Q 43.21875 41.609375 39.140625 45 
Q 35.0625 48.390625 27.6875 48.390625 
Q 23 48.390625 18.546875 47.265625 
Q 14.109375 46.140625 10.015625 43.890625 
L 10.015625 52.203125 
Q 14.9375 54.109375 19.578125 55.046875 
Q 24.21875 56 28.609375 56 
Q 40.484375 56 46.34375 49.84375 
Q 52.203125 43.703125 52.203125 31.203125 
z
" id="DejaVuSans-97"/>
       <path d="M 54.890625 33.015625 
L 54.890625 0 
L 45.90625 0 
L 45.90625 32.71875 
Q 45.90625 40.484375 42.875 44.328125 
Q 39.84375 48.1875 33.796875 48.1875 
Q 26.515625 48.1875 22.3125 43.546875 
Q 18.109375 38.921875 18.109375 30.90625 
L 18.109375 0 
L 9.078125 0 
L 9.078125 75.984375 
L 18.109375 75.984375 
L 18.109375 46.1875 
Q 21.34375 51.125 25.703125 53.5625 
Q 30.078125 56 35.796875 56 
Q 45.21875 56 50.046875 50.171875 
Q 54.890625 44.34375 54.890625 33.015625 
z
" id="DejaVuSans-104"/>
       <path d="M 9.078125 75.984375 
L 18.109375 75.984375 
L 18.109375 31.109375 
L 44.921875 54.6875 
L 56.390625 54.6875 
L 27.390625 29.109375 
L 57.625 0 
L 45.90625 0 
L 18.109375 26.703125 
L 18.109375 0 
L 9.078125 0 
z
" id="DejaVuSans-107"/>
      </defs>
      <g transform="translate(484.780937 458.637812)scale(0.14 -0.14)">
       <use xlink:href="#DejaVuSans-80"/>
       <use x="55.802734" xlink:href="#DejaVuSans-97"/>
       <use x="117.082031" xlink:href="#DejaVuSans-116"/>
       <use x="156.291016" xlink:href="#DejaVuSans-104"/>
       <use x="219.669922" xlink:href="#DejaVuSans-97"/>
       <use x="280.949219" xlink:href="#DejaVuSans-107"/>
      </g>
     </g>
    </g>
    <g id="text_3">
     <!-- Transformer -->
     <defs>
      <path d="M -0.296875 72.90625 
L 61.375 72.90625 
L 61.375 64.59375 
L 35.5 64.59375 
L 35.5 0 
L 25.59375 0 
L 25.59375 64.59375 
L -0.296875 64.59375 
z
" id="DejaVuSans-84"/>
      <path d="M 41.109375 46.296875 
Q 39.59375 47.171875 37.8125 47.578125 
Q 36.03125 48 33.890625 48 
Q 26.265625 48 22.1875 43.046875 
Q 18.109375 38.09375 18.109375 28.8125 
L 18.109375 0 
L 9.078125 0 
L 9.078125 54.6875 
L 18.109375 54.6875 
L 18.109375 46.1875 
Q 20.953125 51.171875 25.484375 53.578125 
Q 30.03125 56 36.53125 56 
Q 37.453125 56 38.578125 55.875 
Q 39.703125 55.765625 41.0625 55.515625 
z
" id="DejaVuSans-114"/>
      <path d="M 44.28125 53.078125 
L 44.28125 44.578125 
Q 40.484375 46.53125 36.375 47.5 
Q 32.28125 48.484375 27.875 48.484375 
Q 21.1875 48.484375 17.84375 46.4375 
Q 14.5 44.390625 14.5 40.28125 
Q 14.5 37.15625 16.890625 35.375 
Q 19.28125 33.59375 26.515625 31.984375 
L 29.59375 31.296875 
Q 39.15625 29.25 43.1875 25.515625 
Q 47.21875 21.78125 47.21875 15.09375 
Q 47.21875 7.46875 41.1875 3.015625 
Q 35.15625 -1.421875 24.609375 -1.421875 
Q 20.21875 -1.421875 15.453125 -0.5625 
Q 10.6875 0.296875 5.421875 2 
L 5.421875 11.28125 
Q 10.40625 8.6875 15.234375 7.390625 
Q 20.0625 6.109375 24.8125 6.109375 
Q 31.15625 6.109375 34.5625 8.28125 
Q 37.984375 10.453125 37.984375 14.40625 
Q 37.984375 18.0625 35.515625 20.015625 
Q 33.0625 21.96875 24.703125 23.78125 
L 21.578125 24.515625 
Q 13.234375 26.265625 9.515625 29.90625 
Q 5.8125 33.546875 5.8125 39.890625 
Q 5.8125 47.609375 11.28125 51.796875 
Q 16.75 56 26.8125 56 
Q 31.78125 56 36.171875 55.265625 
Q 40.578125 54.546875 44.28125 53.078125 
z
" id="DejaVuSans-115"/>
      <path d="M 37.109375 75.984375 
L 37.109375 68.5 
L 28.515625 68.5 
Q 23.6875 68.5 21.796875 66.546875 
Q 19.921875 64.59375 19.921875 59.515625 
L 19.921875 54.6875 
L 34.71875 54.6875 
L 34.71875 47.703125 
L 19.921875 47.703125 
L 19.921875 0 
L 10.890625 0 
L 10.890625 47.703125 
L 2.296875 47.703125 
L 2.296875 54.6875 
L 10.890625 54.6875 
L 10.890625 58.5 
Q 10.890625 67.625 15.140625 71.796875 
Q 19.390625 75.984375 28.609375 75.984375 
z
" id="DejaVuSans-102"/>
      <path d="M 30.609375 48.390625 
Q 23.390625 48.390625 19.1875 42.75 
Q 14.984375 37.109375 14.984375 27.296875 
Q 14.984375 17.484375 19.15625 11.84375 
Q 23.34375 6.203125 30.609375 6.203125 
Q 37.796875 6.203125 41.984375 11.859375 
Q 46.1875 17.53125 46.1875 27.296875 
Q 46.1875 37.015625 41.984375 42.703125 
Q 37.796875 48.390625 30.609375 48.390625 
z
M 30.609375 56 
Q 42.328125 56 49.015625 48.375 
Q 55.71875 40.765625 55.71875 27.296875 
Q 55.71875 13.875 49.015625 6.21875 
Q 42.328125 -1.421875 30.609375 -1.421875 
Q 18.84375 -1.421875 12.171875 6.21875 
Q 5.515625 13.875 5.515625 27.296875 
Q 5.515625 40.765625 12.171875 48.375 
Q 18.84375 56 30.609375 56 
z
" id="DejaVuSans-111"/>
      <path d="M 52 44.1875 
Q 55.375 50.25 60.0625 53.125 
Q 64.75 56 71.09375 56 
Q 79.640625 56 84.28125 50.015625 
Q 88.921875 44.046875 88.921875 33.015625 
L 88.921875 0 
L 79.890625 0 
L 79.890625 32.71875 
Q 79.890625 40.578125 77.09375 44.375 
Q 74.3125 48.1875 68.609375 48.1875 
Q 61.625 48.1875 57.5625 43.546875 
Q 53.515625 38.921875 53.515625 30.90625 
L 53.515625 0 
L 44.484375 0 
L 44.484375 32.71875 
Q 44.484375 40.625 41.703125 44.40625 
Q 38.921875 48.1875 33.109375 48.1875 
Q 26.21875 48.1875 22.15625 43.53125 
Q 18.109375 38.875 18.109375 30.90625 
L 18.109375 0 
L 9.078125 0 
L 9.078125 54.6875 
L 18.109375 54.6875 
L 18.109375 46.1875 
Q 21.1875 51.21875 25.484375 53.609375 
Q 29.78125 56 35.6875 56 
Q 41.65625 56 45.828125 52.96875 
Q 50 49.953125 52 44.1875 
z
" id="DejaVuSans-109"/>
     </defs>
     <g transform="translate(327.001094 476.187187)scale(0.14 -0.14)">
      <use xlink:href="#DejaVuSans-84"/>
      <use x="46.333984" xlink:href="#DejaVuSans-114"/>
      <use x="87.447266" xlink:href="#DejaVuSans-97"/>
      <use x="148.726562" xlink:href="#DejaVuSans-110"/>
      <use x="212.105469" xlink:href="#DejaVuSans-115"/>
      <use x="264.205078" xlink:href="#DejaVuSans-102"/>
      <use x="299.410156" xlink:href="#DejaVuSans-111"/>
      <use x="360.591797" xlink:href="#DejaVuSans-114"/>
      <use x="399.955078" xlink:href="#DejaVuSans-109"/>
      <use x="497.367188" xlink:href="#DejaVuSans-101"/>
      <use x="558.890625" xlink:href="#DejaVuSans-114"/>
     </g>
    </g>
   </g>
   <g id="matplotlib.axis_2">
    <g id="ytick_1">
     <g id="line2d_3">
      <path clip-path="url(#p416d4387af)" d="M 90 431.01587 
L 648 431.01587 
" style="fill:none;stroke:#b0b0b0;stroke-linecap:square;stroke-width:0.8;"/>
     </g>
     <g id="line2d_4">
      <defs>
       <path d="M 0 0 
L -3.5 0 
" id="m525295f04e" style="stroke:#000000;stroke-width:0.8;"/>
      </defs>
      <g>
       <use style="stroke:#000000;stroke-width:0.8;" x="90" xlink:href="#m525295f04e" y="431.01587"/>
      </g>
     </g>
     <g id="text_4">
      <!-- −4 -->
      <defs>
       <path d="M 10.59375 35.5 
L 73.1875 35.5 
L 73.1875 27.203125 
L 10.59375 27.203125 
z
" id="DejaVuSans-8722"/>
       <path d="M 37.796875 64.3125 
L 12.890625 25.390625 
L 37.796875 25.390625 
z
M 35.203125 72.90625 
L 47.609375 72.90625 
L 47.609375 25.390625 
L 58.015625 25.390625 
L 58.015625 17.1875 
L 47.609375 17.1875 
L 47.609375 0 
L 37.796875 0 
L 37.796875 17.1875 
L 4.890625 17.1875 
L 4.890625 26.703125 
z
" id="DejaVuSans-52"/>
      </defs>
      <g transform="translate(62.360937 436.334777)scale(0.14 -0.14)">
       <use xlink:href="#DejaVuSans-8722"/>
       <use x="83.789062" xlink:href="#DejaVuSans-52"/>
      </g>
     </g>
    </g>
    <g id="ytick_2">
     <g id="line2d_5">
      <path clip-path="url(#p416d4387af)" d="M 90 388.428923 
L 648 388.428923 
" style="fill:none;stroke:#b0b0b0;stroke-linecap:square;stroke-width:0.8;"/>
     </g>
     <g id="line2d_6">
      <g>
       <use style="stroke:#000000;stroke-width:0.8;" x="90" xlink:href="#m525295f04e" y="388.428923"/>
      </g>
     </g>
     <g id="text_5">
      <!-- −2 -->
      <defs>
       <path d="M 19.1875 8.296875 
L 53.609375 8.296875 
L 53.609375 0 
L 7.328125 0 
L 7.328125 8.296875 
Q 12.9375 14.109375 22.625 23.890625 
Q 32.328125 33.6875 34.8125 36.53125 
Q 39.546875 41.84375 41.421875 45.53125 
Q 43.3125 49.21875 43.3125 52.78125 
Q 43.3125 58.59375 39.234375 62.25 
Q 35.15625 65.921875 28.609375 65.921875 
Q 23.96875 65.921875 18.8125 64.3125 
Q 13.671875 62.703125 7.8125 59.421875 
L 7.8125 69.390625 
Q 13.765625 71.78125 18.9375 73 
Q 24.125 74.21875 28.421875 74.21875 
Q 39.75 74.21875 46.484375 68.546875 
Q 53.21875 62.890625 53.21875 53.421875 
Q 53.21875 48.921875 51.53125 44.890625 
Q 49.859375 40.875 45.40625 35.40625 
Q 44.1875 33.984375 37.640625 27.21875 
Q 31.109375 20.453125 19.1875 8.296875 
z
" id="DejaVuSans-50"/>
      </defs>
      <g transform="translate(62.360937 393.74783)scale(0.14 -0.14)">
       <use xlink:href="#DejaVuSans-8722"/>
       <use x="83.789062" xlink:href="#DejaVuSans-50"/>
      </g>
     </g>
    </g>
    <g id="ytick_3">
     <g id="line2d_7">
      <path clip-path="url(#p416d4387af)" d="M 90 345.841976 
L 648 345.841976 
" style="fill:none;stroke:#b0b0b0;stroke-linecap:square;stroke-width:0.8;"/>
     </g>
     <g id="line2d_8">
      <g>
       <use style="stroke:#000000;stroke-width:0.8;" x="90" xlink:href="#m525295f04e" y="345.841976"/>
      </g>
     </g>
     <g id="text_6">
      <!-- 0 -->
      <defs>
       <path d="M 31.78125 66.40625 
Q 24.171875 66.40625 20.328125 58.90625 
Q 16.5 51.421875 16.5 36.375 
Q 16.5 21.390625 20.328125 13.890625 
Q 24.171875 6.390625 31.78125 6.390625 
Q 39.453125 6.390625 43.28125 13.890625 
Q 47.125 21.390625 47.125 36.375 
Q 47.125 51.421875 43.28125 58.90625 
Q 39.453125 66.40625 31.78125 66.40625 
z
M 31.78125 74.21875 
Q 44.046875 74.21875 50.515625 64.515625 
Q 56.984375 54.828125 56.984375 36.375 
Q 56.984375 17.96875 50.515625 8.265625 
Q 44.046875 -1.421875 31.78125 -1.421875 
Q 19.53125 -1.421875 13.0625 8.265625 
Q 6.59375 17.96875 6.59375 36.375 
Q 6.59375 54.828125 13.0625 64.515625 
Q 19.53125 74.21875 31.78125 74.21875 
z
" id="DejaVuSans-48"/>
      </defs>
      <g transform="translate(74.0925 351.160882)scale(0.14 -0.14)">
       <use xlink:href="#DejaVuSans-48"/>
      </g>
     </g>
    </g>
    <g id="ytick_4">
     <g id="line2d_9">
      <path clip-path="url(#p416d4387af)" d="M 90 303.255029 
L 648 303.255029 
" style="fill:none;stroke:#b0b0b0;stroke-linecap:square;stroke-width:0.8;"/>
     </g>
     <g id="line2d_10">
      <g>
       <use style="stroke:#000000;stroke-width:0.8;" x="90" xlink:href="#m525295f04e" y="303.255029"/>
      </g>
     </g>
     <g id="text_7">
      <!-- 2 -->
      <g transform="translate(74.0925 308.573935)scale(0.14 -0.14)">
       <use xlink:href="#DejaVuSans-50"/>
      </g>
     </g>
    </g>
    <g id="ytick_5">
     <g id="line2d_11">
      <path clip-path="url(#p416d4387af)" d="M 90 260.668082 
L 648 260.668082 
" style="fill:none;stroke:#b0b0b0;stroke-linecap:square;stroke-width:0.8;"/>
     </g>
     <g id="line2d_12">
      <g>
       <use style="stroke:#000000;stroke-width:0.8;" x="90" xlink:href="#m525295f04e" y="260.668082"/>
      </g>
     </g>
     <g id="text_8">
      <!-- 4 -->
      <g transform="translate(74.0925 265.986988)scale(0.14 -0.14)">
       <use xlink:href="#DejaVuSans-52"/>
      </g>
     </g>
    </g>
    <g id="ytick_6">
     <g id="line2d_13">
      <path clip-path="url(#p416d4387af)" d="M 90 218.081135 
L 648 218.081135 
" style="fill:none;stroke:#b0b0b0;stroke-linecap:square;stroke-width:0.8;"/>
     </g>
     <g id="line2d_14">
      <g>
       <use style="stroke:#000000;stroke-width:0.8;" x="90" xlink:href="#m525295f04e" y="218.081135"/>
      </g>
     </g>
     <g id="text_9">
      <!-- 6 -->
      <defs>
       <path d="M 33.015625 40.375 
Q 26.375 40.375 22.484375 35.828125 
Q 18.609375 31.296875 18.609375 23.390625 
Q 18.609375 15.53125 22.484375 10.953125 
Q 26.375 6.390625 33.015625 6.390625 
Q 39.65625 6.390625 43.53125 10.953125 
Q 47.40625 15.53125 47.40625 23.390625 
Q 47.40625 31.296875 43.53125 35.828125 
Q 39.65625 40.375 33.015625 40.375 
z
M 52.59375 71.296875 
L 52.59375 62.3125 
Q 48.875 64.0625 45.09375 64.984375 
Q 41.3125 65.921875 37.59375 65.921875 
Q 27.828125 65.921875 22.671875 59.328125 
Q 17.53125 52.734375 16.796875 39.40625 
Q 19.671875 43.65625 24.015625 45.921875 
Q 28.375 48.1875 33.59375 48.1875 
Q 44.578125 48.1875 50.953125 41.515625 
Q 57.328125 34.859375 57.328125 23.390625 
Q 57.328125 12.15625 50.6875 5.359375 
Q 44.046875 -1.421875 33.015625 -1.421875 
Q 20.359375 -1.421875 13.671875 8.265625 
Q 6.984375 17.96875 6.984375 36.375 
Q 6.984375 53.65625 15.1875 63.9375 
Q 23.390625 74.21875 37.203125 74.21875 
Q 40.921875 74.21875 44.703125 73.484375 
Q 48.484375 72.75 52.59375 71.296875 
z
" id="DejaVuSans-54"/>
      </defs>
      <g transform="translate(74.0925 223.400041)scale(0.14 -0.14)">
       <use xlink:href="#DejaVuSans-54"/>
      </g>
     </g>
    </g>
    <g id="ytick_7">
     <g id="line2d_15">
      <path clip-path="url(#p416d4387af)" d="M 90 175.494188 
L 648 175.494188 
" style="fill:none;stroke:#b0b0b0;stroke-linecap:square;stroke-width:0.8;"/>
     </g>
     <g id="line2d_16">
      <g>
       <use style="stroke:#000000;stroke-width:0.8;" x="90" xlink:href="#m525295f04e" y="175.494188"/>
      </g>
     </g>
     <g id="text_10">
      <!-- 8 -->
      <defs>
       <path d="M 31.78125 34.625 
Q 24.75 34.625 20.71875 30.859375 
Q 16.703125 27.09375 16.703125 20.515625 
Q 16.703125 13.921875 20.71875 10.15625 
Q 24.75 6.390625 31.78125 6.390625 
Q 38.8125 6.390625 42.859375 10.171875 
Q 46.921875 13.96875 46.921875 20.515625 
Q 46.921875 27.09375 42.890625 30.859375 
Q 38.875 34.625 31.78125 34.625 
z
M 21.921875 38.8125 
Q 15.578125 40.375 12.03125 44.71875 
Q 8.5 49.078125 8.5 55.328125 
Q 8.5 64.0625 14.71875 69.140625 
Q 20.953125 74.21875 31.78125 74.21875 
Q 42.671875 74.21875 48.875 69.140625 
Q 55.078125 64.0625 55.078125 55.328125 
Q 55.078125 49.078125 51.53125 44.71875 
Q 48 40.375 41.703125 38.8125 
Q 48.828125 37.15625 52.796875 32.3125 
Q 56.78125 27.484375 56.78125 20.515625 
Q 56.78125 9.90625 50.3125 4.234375 
Q 43.84375 -1.421875 31.78125 -1.421875 
Q 19.734375 -1.421875 13.25 4.234375 
Q 6.78125 9.90625 6.78125 20.515625 
Q 6.78125 27.484375 10.78125 32.3125 
Q 14.796875 37.15625 21.921875 38.8125 
z
M 18.3125 54.390625 
Q 18.3125 48.734375 21.84375 45.5625 
Q 25.390625 42.390625 31.78125 42.390625 
Q 38.140625 42.390625 41.71875 45.5625 
Q 45.3125 48.734375 45.3125 54.390625 
Q 45.3125 60.0625 41.71875 63.234375 
Q 38.140625 66.40625 31.78125 66.40625 
Q 25.390625 66.40625 21.84375 63.234375 
Q 18.3125 60.0625 18.3125 54.390625 
z
" id="DejaVuSans-56"/>
      </defs>
      <g transform="translate(74.0925 180.813094)scale(0.14 -0.14)">
       <use xlink:href="#DejaVuSans-56"/>
      </g>
     </g>
    </g>
    <g id="ytick_8">
     <g id="line2d_17">
      <path clip-path="url(#p416d4387af)" d="M 90 132.907241 
L 648 132.907241 
" style="fill:none;stroke:#b0b0b0;stroke-linecap:square;stroke-width:0.8;"/>
     </g>
     <g id="line2d_18">
      <g>
       <use style="stroke:#000000;stroke-width:0.8;" x="90" xlink:href="#m525295f04e" y="132.907241"/>
      </g>
     </g>
     <g id="text_11">
      <!-- 10 -->
      <defs>
       <path d="M 12.40625 8.296875 
L 28.515625 8.296875 
L 28.515625 63.921875 
L 10.984375 60.40625 
L 10.984375 69.390625 
L 28.421875 72.90625 
L 38.28125 72.90625 
L 38.28125 8.296875 
L 54.390625 8.296875 
L 54.390625 0 
L 12.40625 0 
z
" id="DejaVuSans-49"/>
      </defs>
      <g transform="translate(65.185 138.226147)scale(0.14 -0.14)">
       <use xlink:href="#DejaVuSans-49"/>
       <use x="63.623047" xlink:href="#DejaVuSans-48"/>
      </g>
     </g>
    </g>
    <g id="ytick_9">
     <g id="line2d_19">
      <path clip-path="url(#p416d4387af)" d="M 90 90.320294 
L 648 90.320294 
" style="fill:none;stroke:#b0b0b0;stroke-linecap:square;stroke-width:0.8;"/>
     </g>
     <g id="line2d_20">
      <g>
       <use style="stroke:#000000;stroke-width:0.8;" x="90" xlink:href="#m525295f04e" y="90.320294"/>
      </g>
     </g>
     <g id="text_12">
      <!-- 12 -->
      <g transform="translate(65.185 95.6392)scale(0.14 -0.14)">
       <use xlink:href="#DejaVuSans-49"/>
       <use x="63.623047" xlink:href="#DejaVuSans-50"/>
      </g>
     </g>
    </g>
    <g id="text_13">
     <!-- Prediction Horizon -->
     <defs>
      <path d="M 48.78125 52.59375 
L 48.78125 44.1875 
Q 44.96875 46.296875 41.140625 47.34375 
Q 37.3125 48.390625 33.40625 48.390625 
Q 24.65625 48.390625 19.8125 42.84375 
Q 14.984375 37.3125 14.984375 27.296875 
Q 14.984375 17.28125 19.8125 11.734375 
Q 24.65625 6.203125 33.40625 6.203125 
Q 37.3125 6.203125 41.140625 7.25 
Q 44.96875 8.296875 48.78125 10.40625 
L 48.78125 2.09375 
Q 45.015625 0.34375 40.984375 -0.53125 
Q 36.96875 -1.421875 32.421875 -1.421875 
Q 20.0625 -1.421875 12.78125 6.34375 
Q 5.515625 14.109375 5.515625 27.296875 
Q 5.515625 40.671875 12.859375 48.328125 
Q 20.21875 56 33.015625 56 
Q 37.15625 56 41.109375 55.140625 
Q 45.0625 54.296875 48.78125 52.59375 
z
" id="DejaVuSans-99"/>
      <path id="DejaVuSans-32"/>
      <path d="M 9.8125 72.90625 
L 19.671875 72.90625 
L 19.671875 43.015625 
L 55.515625 43.015625 
L 55.515625 72.90625 
L 65.375 72.90625 
L 65.375 0 
L 55.515625 0 
L 55.515625 34.71875 
L 19.671875 34.71875 
L 19.671875 0 
L 9.8125 0 
z
" id="DejaVuSans-72"/>
      <path d="M 5.515625 54.6875 
L 48.1875 54.6875 
L 48.1875 46.484375 
L 14.40625 7.171875 
L 48.1875 7.171875 
L 48.1875 0 
L 4.296875 0 
L 4.296875 8.203125 
L 38.09375 47.515625 
L 5.515625 47.515625 
z
" id="DejaVuSans-122"/>
     </defs>
     <g transform="translate(55.449375 314.499063)rotate(-90)scale(0.14 -0.14)">
      <use xlink:href="#DejaVuSans-80"/>
      <use x="58.552734" xlink:href="#DejaVuSans-114"/>
      <use x="97.416016" xlink:href="#DejaVuSans-101"/>
      <use x="158.939453" xlink:href="#DejaVuSans-100"/>
      <use x="222.416016" xlink:href="#DejaVuSans-105"/>
      <use x="250.199219" xlink:href="#DejaVuSans-99"/>
      <use x="305.179688" xlink:href="#DejaVuSans-116"/>
      <use x="344.388672" xlink:href="#DejaVuSans-105"/>
      <use x="372.171875" xlink:href="#DejaVuSans-111"/>
      <use x="433.353516" xlink:href="#DejaVuSans-110"/>
      <use x="496.732422" xlink:href="#DejaVuSans-32"/>
      <use x="528.519531" xlink:href="#DejaVuSans-72"/>
      <use x="603.714844" xlink:href="#DejaVuSans-111"/>
      <use x="664.896484" xlink:href="#DejaVuSans-114"/>
      <use x="706.009766" xlink:href="#DejaVuSans-105"/>
      <use x="733.792969" xlink:href="#DejaVuSans-122"/>
      <use x="786.283203" xlink:href="#DejaVuSans-111"/>
      <use x="847.464844" xlink:href="#DejaVuSans-110"/>
     </g>
    </g>
   </g>
   <g id="line2d_21">
    <path clip-path="url(#p416d4387af)" d="M 229.5 345.362873 
L 229.5 344.404667 
" style="fill:none;stroke:#3f3f3f;stroke-linecap:square;stroke-width:1.5;"/>
   </g>
   <g id="line2d_22">
    <path clip-path="url(#p416d4387af)" d="M 229.5 345.362873 
L 229.5 344.88377 
" style="fill:none;stroke:#3f3f3f;stroke-linecap:square;stroke-width:4.5;"/>
   </g>
   <g id="line2d_23">
    <path clip-path="url(#p416d4387af)" d="M 508.5 346.321079 
L 508.5 155.158921 
" style="fill:none;stroke:#3f3f3f;stroke-linecap:square;stroke-width:1.5;"/>
   </g>
   <g id="line2d_24">
    <path clip-path="url(#p416d4387af)" d="M 508.5 260.801166 
L 508.5 173.245065 
" style="fill:none;stroke:#3f3f3f;stroke-linecap:square;stroke-width:4.5;"/>
   </g>
   <g id="patch_3">
    <path d="M 90 441 
L 90 60.48 
" style="fill:none;stroke:#000000;stroke-linecap:square;stroke-linejoin:miter;stroke-width:0.8;"/>
   </g>
   <g id="patch_4">
    <path d="M 648 441 
L 648 60.48 
" style="fill:none;stroke:#000000;stroke-linecap:square;stroke-linejoin:miter;stroke-width:0.8;"/>
   </g>
   <g id="patch_5">
    <path d="M 90 441 
L 648 441 
" style="fill:none;stroke:#000000;stroke-linecap:square;stroke-linejoin:miter;stroke-width:0.8;"/>
   </g>
   <g id="patch_6">
    <path d="M 90 60.48 
L 648 60.48 
" style="fill:none;stroke:#000000;stroke-linecap:square;stroke-linejoin:miter;stroke-width:0.8;"/>
   </g>
   <g id="PathCollection_1">
    <defs>
     <path d="M 0 1.5 
C 0.397805 1.5 0.77937 1.341951 1.06066 1.06066 
C 1.341951 0.77937 1.5 0.397805 1.5 0 
C 1.5 -0.397805 1.341951 -0.77937 1.06066 -1.06066 
C 0.77937 -1.341951 0.397805 -1.5 0 -1.5 
C -0.397805 -1.5 -0.77937 -1.341951 -1.06066 -1.06066 
C -1.341951 -0.77937 -1.5 -0.397805 -1.5 0 
C -1.5 0.397805 -1.341951 0.77937 -1.06066 1.06066 
C -0.77937 1.341951 -0.397805 1.5 0 1.5 
z
" id="m77c970498c" style="stroke:#3f3f3f;"/>
    </defs>
    <g clip-path="url(#p416d4387af)">
     <use style="fill:#ffffff;stroke:#3f3f3f;" x="229.5" xlink:href="#m77c970498c" y="345.123321"/>
    </g>
   </g>
   <g id="PathCollection_2">
    <g clip-path="url(#p416d4387af)">
     <use style="fill:#ffffff;stroke:#3f3f3f;" x="508.5" xlink:href="#m77c970498c" y="203.548339"/>
    </g>
   </g>
  </g>
 </g>
 <defs>
  <clipPath id="p416d4387af">
   <rect height="380.52" width="558" x="90" y="60.48"/>
  </clipPath>
 </defs>
</svg>
